<?xml version="1.0" encoding="UTF-8"?>
<!DOCTYPE svg PUBLIC "-//W3C//DTD SVG 1.1//EN" "http://www.w3.org/Graphics/SVG/1.1/DTD/svg11.dtd">
<svg xmlns="http://www.w3.org/2000/svg" version="1.1" width="512px" height="512px" style="shape-rendering:geometricPrecision; text-rendering:geometricPrecision; image-rendering:optimizeQuality; fill-rule:evenodd; clip-rule:evenodd" xmlns:xlink="http://www.w3.org/1999/xlink">
<g><path style="opacity:0.994" fill="#53747f" d="M 132.5,-0.5 C 159.5,-0.5 186.5,-0.5 213.5,-0.5C 243.969,1.10046 274.302,4.9338 304.5,11C 317.154,13.5509 329.154,17.8843 340.5,24C 343.564,26.2072 345.564,29.0406 346.5,32.5C 346.856,35.5641 346.023,38.2307 344,40.5C 341.5,42.3333 339,44.1667 336.5,46C 315.719,54.9456 294.052,60.6123 271.5,63C 237.966,67.191 204.3,69.0243 170.5,68.5C 131.886,69.3549 93.553,66.5216 55.5,60C 43.6293,57.7823 31.9626,54.7823 20.5,51C 14.3898,48.779 8.72315,45.779 3.5,42C 2.02294,40.1879 0.689603,38.3545 -0.5,36.5C -0.5,34.5 -0.5,32.5 -0.5,30.5C 4.17312,24.6439 10.1731,20.4773 17.5,18C 36.3971,11.7537 55.7304,7.42042 75.5,5C 94.6071,2.67424 113.607,0.840906 132.5,-0.5 Z"/></g>
<g><path style="opacity:1" fill="#3f5b6b" d="M 346.5,32.5 C 347.499,99.3313 347.832,166.331 347.5,233.5C 347.167,233.5 346.833,233.5 346.5,233.5C 346.667,205.831 346.5,178.165 346,150.5C 342.407,155.084 337.907,158.584 332.5,161C 321.767,165.199 310.767,168.532 299.5,171C 216.56,184.648 133.56,184.981 50.5,172C 35.0453,169.182 20.3786,164.182 6.5,157C 3.93337,154.604 1.60004,152.104 -0.5,149.5C -0.5,111.833 -0.5,74.1667 -0.5,36.5C 0.689603,38.3545 2.02294,40.1879 3.5,42C 8.72315,45.779 14.3898,48.779 20.5,51C 31.9626,54.7823 43.6293,57.7823 55.5,60C 93.553,66.5216 131.886,69.3549 170.5,68.5C 204.3,69.0243 237.966,67.191 271.5,63C 294.052,60.6123 315.719,54.9456 336.5,46C 339,44.1667 341.5,42.3333 344,40.5C 346.023,38.2307 346.856,35.5641 346.5,32.5 Z"/></g>
<g><path style="opacity:1" fill="#fa5364" d="M 31.5,77.5 C 40.2071,77.0367 43.7071,81.0367 42,89.5C 39.5647,94.2238 35.7314,95.7238 30.5,94C 23.6317,88.1442 23.965,82.6442 31.5,77.5 Z"/></g>
<g><path style="opacity:1" fill="#35495e" d="M 30.5,112.5 C 35.635,111.426 39.4683,113.093 42,117.5C 42.6667,125.833 42.6667,134.167 42,142.5C 39.0453,146.277 35.212,147.443 30.5,146C 28.3333,145.167 26.8333,143.667 26,141.5C 25.3333,133.5 25.3333,125.5 26,117.5C 27.3657,115.638 28.8657,113.972 30.5,112.5 Z"/></g>
<g><path style="opacity:1" fill="#35495e" d="M 305.5,121.5 C 308.85,121.335 312.183,121.502 315.5,122C 320.568,124.983 321.735,129.149 319,134.5C 317.681,136.487 315.848,137.654 313.5,138C 288.533,144.329 263.199,147.662 237.5,148C 231.898,142.236 232.231,136.903 238.5,132C 261.265,130.202 283.598,126.702 305.5,121.5 Z"/></g>
<g><path style="opacity:1" fill="#35495e" d="M -0.5,149.5 C 1.60004,152.104 3.93337,154.604 6.5,157C 20.3786,164.182 35.0453,169.182 50.5,172C 133.56,184.981 216.56,184.648 299.5,171C 310.767,168.532 321.767,165.199 332.5,161C 337.907,158.584 342.407,155.084 346,150.5C 346.5,178.165 346.667,205.831 346.5,233.5C 306.389,232.55 275.723,248.883 254.5,282.5C 230.803,275.706 209.137,279.706 189.5,294.5C 147.268,295.654 105.268,293.154 63.5,287C 49.2889,284.521 35.2889,281.188 21.5,277C 12.5535,274.377 5.22014,269.543 -0.5,262.5C -0.5,224.833 -0.5,187.167 -0.5,149.5 Z"/></g>
<g><path style="opacity:1" fill="#fa5263" d="M 30.5,190.5 C 37.6027,189.202 41.6027,192.035 42.5,199C 41.602,206.125 37.602,208.792 30.5,207C 23.8812,201.471 23.8812,195.971 30.5,190.5 Z"/></g>
<g><path style="opacity:1" fill="#2c3e50" d="M 30.5,225.5 C 35.2225,224.553 39.0558,225.886 42,229.5C 42.6667,238.167 42.6667,246.833 42,255.5C 36.1898,261.093 30.8564,260.76 26,254.5C 25.3333,246.5 25.3333,238.5 26,230.5C 27.025,228.313 28.525,226.646 30.5,225.5 Z"/></g>
<g><path style="opacity:0.996" fill="#efc319" d="M 346.5,233.5 C 346.833,233.5 347.167,233.5 347.5,233.5C 396.284,243.62 425.284,273.286 434.5,322.5C 466.658,330.491 488.158,350.157 499,381.5C 510.403,421.06 501.569,455.227 472.5,484C 459.519,494.987 444.519,501.32 427.5,503C 332.474,503.983 237.474,503.65 142.5,502C 111.856,493.021 93.3558,472.854 87,441.5C 84.9544,431.417 85.121,421.417 87.5,411.5C 94.8771,379.957 114.21,360.123 145.5,352C 149.486,351.501 153.486,351.334 157.5,351.5C 160.665,328.159 171.332,309.159 189.5,294.5C 209.137,279.706 230.803,275.706 254.5,282.5C 275.723,248.883 306.389,232.55 346.5,233.5 Z"/></g>
<g><path style="opacity:0.999" fill="#3f5c6b" d="M -0.5,262.5 C 5.22014,269.543 12.5535,274.377 21.5,277C 35.2889,281.188 49.2889,284.521 63.5,287C 105.268,293.154 147.268,295.654 189.5,294.5C 171.332,309.159 160.665,328.159 157.5,351.5C 153.486,351.334 149.486,351.501 145.5,352C 114.21,360.123 94.8771,379.957 87.5,411.5C 66.0966,409.919 45.0966,406.086 24.5,400C 14.821,397.171 6.48766,392.338 -0.5,385.5C -0.5,344.5 -0.5,303.5 -0.5,262.5 Z"/></g>
<g><path style="opacity:1" fill="#fa5364" d="M 30.5,303.5 C 37.6027,302.202 41.6027,305.035 42.5,312C 41.5687,319.003 37.5687,321.67 30.5,320C 23.8557,314.375 23.8557,308.875 30.5,303.5 Z"/></g>
<g><path style="opacity:1" fill="#35495e" d="M 30.5,338.5 C 35.7419,337.271 39.5752,338.937 42,343.5C 42.6667,351.5 42.6667,359.5 42,367.5C 36.7636,374.145 31.4302,374.145 26,367.5C 25.3333,359.5 25.3333,351.5 26,343.5C 27.025,341.313 28.525,339.646 30.5,338.5 Z"/></g>
</svg>
