<?xml version="1.0" encoding="UTF-8"?>
<!DOCTYPE svg PUBLIC "-//W3C//DTD SVG 1.1//EN" "http://www.w3.org/Graphics/SVG/1.1/DTD/svg11.dtd">
<svg xmlns="http://www.w3.org/2000/svg" version="1.1" width="512px" height="512px" style="shape-rendering:geometricPrecision; text-rendering:geometricPrecision; image-rendering:optimizeQuality; fill-rule:evenodd; clip-rule:evenodd" xmlns:xlink="http://www.w3.org/1999/xlink">
<g><path style="opacity:1" fill="#1fa8e5" d="M 111.5,-0.5 C 114.5,-0.5 117.5,-0.5 120.5,-0.5C 176.497,5.51784 220.164,31.8512 251.5,78.5C 248.471,81.859 245.471,85.1924 242.5,88.5C 234.326,72.8133 223.326,59.3133 209.5,48C 187.977,29.9072 163.31,18.2406 135.5,13C 80.6567,7.00764 41.8234,29.1743 19,79.5C 7.13857,108.758 7.80523,137.758 21,166.5C 21.6869,168.568 21.5202,170.568 20.5,172.5C 35.0539,179.941 49.3872,187.608 63.5,195.5C 63.5879,199.306 62.9213,202.973 61.5,206.5C 53.964,202.232 46.2973,198.232 38.5,194.5C 31.6259,190.896 24.6259,187.563 17.5,184.5C 11.8599,181.68 6.19322,178.847 0.5,176C 3.5,173.5 6.5,171 9.5,168.5C 4.74931,157.807 1.41597,146.807 -0.5,135.5C -0.5,125.5 -0.5,115.5 -0.5,105.5C 7.63036,62.8772 30.6304,31.0439 68.5,10C 82.3251,3.87372 96.6585,0.373716 111.5,-0.5 Z"/></g>
<g><path style="opacity:0.994" fill="#fb0ab2" d="M 511.5,105.5 C 511.5,115.5 511.5,125.5 511.5,135.5C 509.584,146.807 506.251,157.807 501.5,168.5C 504.5,171 507.5,173.5 510.5,176C 504.807,178.847 499.14,181.68 493.5,184.5C 483.059,188.887 472.725,193.553 462.5,198.5C 459.857,185.622 457.19,172.622 454.5,159.5C 458.81,156.234 461.643,151.901 463,146.5C 472.383,107.966 461.217,77.1331 429.5,54C 402.006,39.2973 375.006,40.2973 348.5,57C 326.3,70.8525 306.133,87.3525 288,106.5C 273.545,123.109 259.712,140.109 246.5,157.5C 247.008,155.135 247.675,152.801 248.5,150.5C 244.607,149.185 240.607,148.518 236.5,148.5C 224.301,147.682 212.301,146.348 200.5,144.5C 204.772,136.899 209.439,129.566 214.5,122.5C 223.373,110.944 232.706,99.6108 242.5,88.5C 245.471,85.1924 248.471,81.859 251.5,78.5C 276.156,51.845 304.489,30.0117 336.5,13C 384.076,-7.34571 428.41,-2.01238 469.5,29C 492.272,49.7118 506.272,75.2118 511.5,105.5 Z"/></g>
<g><path style="opacity:0.999" fill="#0bd4fc" d="M 242.5,88.5 C 232.706,99.6108 223.373,110.944 214.5,122.5C 208.661,111.994 201.661,102.328 193.5,93.5C 190.5,88.5 186.5,84.5 181.5,81.5C 166.728,68.6045 149.728,59.7711 130.5,55C 80.5328,52.6338 55.6994,76.4671 56,126.5C 56.5112,133.907 58.3445,140.907 61.5,147.5C 64.1667,146.167 66.8333,144.833 69.5,143.5C 70.2508,149.85 69.9174,156.184 68.5,162.5C 66.505,173.451 64.8383,184.451 63.5,195.5C 49.3872,187.608 35.0539,179.941 20.5,172.5C 21.5202,170.568 21.6869,168.568 21,166.5C 7.80523,137.758 7.13857,108.758 19,79.5C 41.8234,29.1743 80.6567,7.00764 135.5,13C 163.31,18.2406 187.977,29.9072 209.5,48C 223.326,59.3133 234.326,72.8133 242.5,88.5 Z"/></g>
<g><path style="opacity:1" fill="#cc1eab" d="M 462.5,198.5 C 459.355,201.113 455.689,202.779 451.5,203.5C 450.451,194.921 448.784,186.588 446.5,178.5C 446.375,173.206 445.375,168.206 443.5,163.5C 442.631,157.822 441.631,152.155 440.5,146.5C 440.833,145.5 441.167,144.5 441.5,143.5C 444.167,144.833 446.833,146.167 449.5,147.5C 459.973,117.888 453.973,92.0544 431.5,70C 414.658,56.0414 395.658,52.0414 374.5,58C 365.77,61.1983 357.437,65.1983 349.5,70C 323.533,87.1291 300.866,107.962 281.5,132.5C 278.119,134.88 275.453,137.88 273.5,141.5C 266.025,150.437 259.025,159.771 252.5,169.5C 249.833,169.5 247.167,169.5 244.5,169.5C 244.848,165.443 245.514,161.443 246.5,157.5C 259.712,140.109 273.545,123.109 288,106.5C 306.133,87.3525 326.3,70.8525 348.5,57C 375.006,40.2973 402.006,39.2973 429.5,54C 461.217,77.1331 472.383,107.966 463,146.5C 461.643,151.901 458.81,156.234 454.5,159.5C 457.19,172.622 459.857,185.622 462.5,198.5 Z"/></g>
<g><path style="opacity:0.976" fill="#66deae" d="M 181.5,81.5 C 186.5,84.5 190.5,88.5 193.5,93.5C 189.167,89.8333 185.167,85.8333 181.5,81.5 Z"/></g>
<g><path style="opacity:0.921" fill="#cc1cab" d="M 126.5,107.5 C 127.873,107.343 129.207,107.51 130.5,108C 132.127,110.754 133.627,113.588 135,116.5C 147.347,119.841 147.514,123.675 135.5,128C 133.988,131.664 131.655,134.497 128.5,136.5C 125.591,134.207 123.258,131.373 121.5,128C 118.021,126.943 115.355,124.943 113.5,122C 113.645,121.228 113.978,120.561 114.5,120C 121.393,118.607 125.393,114.44 126.5,107.5 Z"/></g>
<g><path style="opacity:0.908" fill="#00d5fe" d="M 380.5,107.5 C 382.144,107.286 383.644,107.62 385,108.5C 386.218,115.553 390.385,119.22 397.5,119.5C 397.785,121.288 397.452,122.955 396.5,124.5C 390.369,126.131 386.369,129.964 384.5,136C 383.167,136.667 381.833,136.667 380.5,136C 379.126,133.417 377.626,130.917 376,128.5C 372.652,127.089 369.819,125.089 367.5,122.5C 367.608,121.558 367.941,120.725 368.5,120C 371.102,119.023 373.602,117.856 376,116.5C 377.513,113.473 379.013,110.473 380.5,107.5 Z"/></g>
<g><path style="opacity:1" fill="#11a8e9" d="M 281.5,132.5 C 300.509,153.666 322.842,170.5 348.5,183C 368.128,192.615 388.462,194.615 409.5,189C 423.59,184.064 434.923,175.564 443.5,163.5C 445.375,168.206 446.375,173.206 446.5,178.5C 418.144,205.058 385.81,210.892 349.5,196C 320.469,182.985 295.136,164.818 273.5,141.5C 275.453,137.88 278.119,134.88 281.5,132.5 Z"/></g>
<g><path style="opacity:0.99" fill="#fed529" d="M 200.5,144.5 C 212.301,146.348 224.301,147.682 236.5,148.5C 235.679,155.606 234.345,162.606 232.5,169.5C 230.5,169.5 228.5,169.5 226.5,169.5C 226.825,177.019 226.492,184.352 225.5,191.5C 224.078,191.709 222.745,192.209 221.5,193C 210.795,203.556 199.128,212.723 186.5,220.5C 180.365,219.1 174.699,216.6 169.5,213C 164.985,208.318 160.319,203.818 155.5,199.5C 142.479,212.188 129.479,224.855 116.5,237.5C 83.6691,235.094 57.6691,220.76 38.5,194.5C 46.2973,198.232 53.964,202.232 61.5,206.5C 62.9213,202.973 63.5879,199.306 63.5,195.5C 64.8383,184.451 66.505,173.451 68.5,162.5C 87.9162,190.362 113.916,199.195 146.5,189C 165.623,179.938 181.956,167.271 195.5,151C 193.833,148.667 192.167,146.333 190.5,144C 193.888,143.341 197.221,143.508 200.5,144.5 Z"/></g>
<g><path style="opacity:1" fill="#fea815" d="M 236.5,148.5 C 240.607,148.518 244.607,149.185 248.5,150.5C 247.675,152.801 247.008,155.135 246.5,157.5C 245.514,161.443 244.848,165.443 244.5,169.5C 240.5,169.5 236.5,169.5 232.5,169.5C 234.345,162.606 235.679,155.606 236.5,148.5 Z"/></g>
<g><path style="opacity:0.994" fill="#ededed" d="M 232.5,169.5 C 236.5,169.5 240.5,169.5 244.5,169.5C 247.167,169.5 249.833,169.5 252.5,169.5C 263.167,169.5 273.833,169.5 284.5,169.5C 284.124,178.235 284.624,186.902 286,195.5C 293.213,214.025 306.713,222.191 326.5,220C 331.651,219.09 336.318,217.09 340.5,214C 345.348,208.985 350.348,204.152 355.5,199.5C 369.319,212.819 382.986,226.319 396.5,240C 393.553,242.436 391.22,245.269 389.5,248.5C 371.243,266.321 370.91,284.487 388.5,303C 393.345,306.422 398.678,308.755 404.5,310C 411.826,310.5 419.159,310.666 426.5,310.5C 426.5,330.167 426.5,349.833 426.5,369.5C 416.685,368.927 407.018,369.76 397.5,372C 380.129,380.575 373.296,394.408 377,413.5C 381.719,423.574 388.385,432.24 397,439.5C 384.491,454.511 370.658,468.511 355.5,481.5C 350.348,476.848 345.348,472.015 340.5,467C 323.209,456.057 307.376,457.89 293,472.5C 290.565,475.934 288.565,479.6 287,483.5C 285.614,492.766 285.114,502.1 285.5,511.5C 265.833,511.5 246.167,511.5 226.5,511.5C 227.137,500.608 225.97,489.941 223,479.5C 212.947,462.727 198.447,456.893 179.5,462C 170.668,466.823 163.002,473.157 156.5,481C 155.833,481.667 155.167,481.667 154.5,481C 140.833,467.333 127.167,453.667 113.5,440C 122.232,432.945 129.065,424.445 134,414.5C 138.394,391.237 129.227,376.404 106.5,370C 99.1742,369.5 91.8409,369.334 84.5,369.5C 84.5,349.833 84.5,330.167 84.5,310.5C 93.5586,310.846 102.559,310.346 111.5,309C 129.428,301.994 137.262,288.827 135,269.5C 133.09,261.33 128.923,254.664 122.5,249.5C 120.443,245.933 117.777,242.766 114.5,240C 115.381,239.292 116.047,238.458 116.5,237.5C 129.479,224.855 142.479,212.188 155.5,199.5C 160.319,203.818 164.985,208.318 169.5,213C 174.699,216.6 180.365,219.1 186.5,220.5C 207.747,221.727 220.747,212.06 225.5,191.5C 226.492,184.352 226.825,177.019 226.5,169.5C 228.5,169.5 230.5,169.5 232.5,169.5 Z"/></g>
<g><path style="opacity:0.988" fill="#09d4fd" d="M 273.5,141.5 C 295.136,164.818 320.469,182.985 349.5,196C 385.81,210.892 418.144,205.058 446.5,178.5C 448.784,186.588 450.451,194.921 451.5,203.5C 455.689,202.779 459.355,201.113 462.5,198.5C 472.725,193.553 483.059,188.887 493.5,184.5C 480.217,209.949 460.55,228.782 434.5,241C 420.09,246.957 405.09,249.457 389.5,248.5C 391.22,245.269 393.553,242.436 396.5,240C 382.986,226.319 369.319,212.819 355.5,199.5C 350.348,204.152 345.348,208.985 340.5,214C 336.318,217.09 331.651,219.09 326.5,220C 306.713,222.191 293.213,214.025 286,195.5C 284.624,186.902 284.124,178.235 284.5,169.5C 273.833,169.5 263.167,169.5 252.5,169.5C 259.025,159.771 266.025,150.437 273.5,141.5 Z"/></g>
<g><path style="opacity:1" fill="#feab12" d="M 17.5,184.5 C 24.6259,187.563 31.6259,190.896 38.5,194.5C 57.6691,220.76 83.6691,235.094 116.5,237.5C 116.047,238.458 115.381,239.292 114.5,240C 117.777,242.766 120.443,245.933 122.5,249.5C 75.4228,247.046 40.4228,225.379 17.5,184.5 Z"/></g>
<g><path style="opacity:1" fill="#feaa15" d="M 225.5,191.5 C 220.747,212.06 207.747,221.727 186.5,220.5C 199.128,212.723 210.795,203.556 221.5,193C 222.745,192.209 224.078,191.709 225.5,191.5 Z"/></g>
<g><path style="opacity:1" fill="#40403f" d="M 237.5,292.5 C 237.405,283.945 235.072,276.112 230.5,269C 228.801,268.042 226.967,267.542 225,267.5C 220.715,268.488 216.382,269.155 212,269.5C 206.57,268.132 201.07,267.632 195.5,268C 189.555,275.004 186.888,283.17 187.5,292.5C 182.48,283.914 180.314,274.581 181,264.5C 188.385,246.774 201.218,240.94 219.5,247C 222.362,247.93 224.695,249.597 226.5,252C 241.456,253.087 247.289,260.921 244,275.5C 242.339,281.466 240.173,287.133 237.5,292.5 Z"/></g>
<g><path style="opacity:1" fill="#3f3f3f" d="M 323.5,292.5 C 323.551,284.704 321.718,277.37 318,270.5C 315.867,268.147 313.2,267.147 310,267.5C 300.501,268.466 291.001,268.632 281.5,268C 278.57,270.12 276.737,272.953 276,276.5C 274.911,281.802 274.078,287.135 273.5,292.5C 267.954,283.298 266.12,273.298 268,262.5C 275.696,245.906 288.196,240.739 305.5,247C 308.362,247.93 310.695,249.597 312.5,252C 325.823,252.646 331.99,259.479 331,272.5C 329.359,279.604 326.859,286.27 323.5,292.5 Z"/></g>
<g><path style="opacity:0.958" fill="#ff8cdd" d="M 19.5,265.5 C 22.2529,266.022 24.9196,266.856 27.5,268C 36.5,282 45.5,282 54.5,268C 64.5141,263.674 70.8474,266.84 73.5,277.5C 68.9255,290.901 59.5921,298.734 45.5,301C 27.3173,302.248 14.984,294.415 8.5,277.5C 9.47913,270.86 13.1458,266.86 19.5,265.5 Z"/></g>
<g><path style="opacity:0.96" fill="#ff8cde" d="M 446.5,265.5 C 449.253,266.022 451.92,266.856 454.5,268C 463.5,282 472.5,282 481.5,268C 491.254,263.71 497.587,266.71 500.5,277C 496.164,290.66 486.83,298.66 472.5,301C 454.317,302.248 441.984,294.415 435.5,277.5C 436.479,270.86 440.146,266.86 446.5,265.5 Z"/></g>
<g><path style="opacity:1" fill="#fdc4b6" d="M 237.5,292.5 C 238.344,303.93 234.011,312.597 224.5,318.5C 216.66,322.468 208.827,322.468 201,318.5C 200.617,319.056 200.117,319.389 199.5,319.5C 195.871,316.018 192.704,312.018 190,307.5C 187.967,302.705 187.134,297.705 187.5,292.5C 186.888,283.17 189.555,275.004 195.5,268C 201.07,267.632 206.57,268.132 212,269.5C 216.382,269.155 220.715,268.488 225,267.5C 226.967,267.542 228.801,268.042 230.5,269C 235.072,276.112 237.405,283.945 237.5,292.5 Z"/></g>
<g><path style="opacity:1" fill="#fdc4b6" d="M 323.5,292.5 C 323.977,297.742 323.144,302.742 321,307.5C 318.296,312.018 315.129,316.018 311.5,319.5C 310.85,319.196 310.183,318.863 309.5,318.5C 302.167,322.5 294.833,322.5 287.5,318.5C 286.817,318.863 286.15,319.196 285.5,319.5C 282.189,315.344 279.023,311.01 276,306.5C 273.896,302.078 273.063,297.412 273.5,292.5C 274.078,287.135 274.911,281.802 276,276.5C 276.737,272.953 278.57,270.12 281.5,268C 291.001,268.632 300.501,268.466 310,267.5C 313.2,267.147 315.867,268.147 318,270.5C 321.718,277.37 323.551,284.704 323.5,292.5 Z"/></g>
<g><path style="opacity:1" fill="#fda09a" d="M 224.5,318.5 C 225.902,323.642 228.569,327.975 232.5,331.5C 222.783,338.78 212.116,340.447 200.5,336.5C 197.669,334.583 194.669,332.917 191.5,331.5C 195.638,328.58 198.304,324.58 199.5,319.5C 200.117,319.389 200.617,319.056 201,318.5C 208.827,322.468 216.66,322.468 224.5,318.5 Z"/></g>
<g><path style="opacity:1" fill="#fea099" d="M 311.5,319.5 C 312.794,324.085 315.127,328.085 318.5,331.5C 309.054,338.602 298.72,340.268 287.5,336.5C 284.833,334.833 282.167,333.167 279.5,331.5C 282.033,327.768 284.033,323.768 285.5,319.5C 286.15,319.196 286.817,318.863 287.5,318.5C 294.833,322.5 302.167,322.5 309.5,318.5C 310.183,318.863 310.85,319.196 311.5,319.5 Z"/></g>
<g><path style="opacity:1" fill="#724ed0" d="M 191.5,331.5 C 194.669,332.917 197.669,334.583 200.5,336.5C 192.817,339.563 185.15,342.729 177.5,346C 171.004,350.153 166.838,355.987 165,363.5C 164.5,381.83 164.333,400.164 164.5,418.5C 161.833,418.5 159.167,418.5 156.5,418.5C 156.333,398.497 156.5,378.497 157,358.5C 158.16,350.681 161.994,344.514 168.5,340C 175.921,336.471 183.587,333.638 191.5,331.5 Z"/></g>
<g><path style="opacity:1" fill="#1aa8e9" d="M 279.5,331.5 C 282.167,333.167 284.833,334.833 287.5,336.5C 280.64,339.405 273.64,342.238 266.5,345C 265.177,345.816 264.511,346.983 264.5,348.5C 261.833,345.167 258.833,342.167 255.5,339.5C 263.155,335.837 271.155,333.171 279.5,331.5 Z"/></g>
<g><path style="opacity:1" fill="#04d4fd" d="M 318.5,331.5 C 329.456,333.424 339.289,337.758 348,344.5C 349.92,347.339 351.587,350.339 353,353.5C 354.467,375.1 354.967,396.767 354.5,418.5C 347.167,418.5 339.833,418.5 332.5,418.5C 332.5,404.833 332.5,391.167 332.5,377.5C 331.167,377.5 329.833,377.5 328.5,377.5C 328.5,391.167 328.5,404.833 328.5,418.5C 308.5,418.5 288.5,418.5 268.5,418.5C 268.667,398.164 268.5,377.831 268,357.5C 267.119,354.353 265.953,351.353 264.5,348.5C 264.511,346.983 265.177,345.816 266.5,345C 273.64,342.238 280.64,339.405 287.5,336.5C 298.72,340.268 309.054,338.602 318.5,331.5 Z"/></g>
<g><path style="opacity:1" fill="#905efc" d="M 232.5,331.5 C 240.167,334.167 247.833,336.833 255.5,339.5C 258.833,342.167 261.833,345.167 264.5,348.5C 265.953,351.353 267.119,354.353 268,357.5C 268.5,377.831 268.667,398.164 268.5,418.5C 261.167,418.5 253.833,418.5 246.5,418.5C 246.5,404.833 246.5,391.167 246.5,377.5C 245.167,377.5 243.833,377.5 242.5,377.5C 242.5,391.167 242.5,404.833 242.5,418.5C 222.5,418.5 202.5,418.5 182.5,418.5C 182.5,404.833 182.5,391.167 182.5,377.5C 181.167,377.5 179.833,377.5 178.5,377.5C 178.5,391.167 178.5,404.833 178.5,418.5C 173.833,418.5 169.167,418.5 164.5,418.5C 164.333,400.164 164.5,381.83 165,363.5C 166.838,355.987 171.004,350.153 177.5,346C 185.15,342.729 192.817,339.563 200.5,336.5C 212.116,340.447 222.783,338.78 232.5,331.5 Z"/></g>
<g><path style="opacity:0.977" fill="#a1e032" d="M 37.5,368.5 C 54.3906,367.192 66.8906,373.859 75,388.5C 76.0038,399.828 70.8371,404.661 59.5,403C 55.8333,400.667 52.8333,397.667 50.5,394C 45.8333,390.667 41.1667,390.667 36.5,394C 34.1667,397.667 31.1667,400.667 27.5,403C 13.3612,403.862 8.86116,397.695 14,384.5C 19.7733,376.038 27.6066,370.705 37.5,368.5 Z"/></g>
<g><path style="opacity:0.976" fill="#a1e031" d="M 464.5,368.5 C 481.391,367.192 493.891,373.859 502,388.5C 502.984,399.848 497.818,404.681 486.5,403C 482.833,400.667 479.833,397.667 477.5,394C 472.833,390.667 468.167,390.667 463.5,394C 461.167,397.667 458.167,400.667 454.5,403C 440.361,403.862 435.861,397.695 441,384.5C 446.773,376.038 454.607,370.705 464.5,368.5 Z"/></g>
<g><path style="opacity:1" fill="#6e4acf" d="M 182.5,418.5 C 181.167,418.5 179.833,418.5 178.5,418.5C 178.5,404.833 178.5,391.167 178.5,377.5C 179.833,377.5 181.167,377.5 182.5,377.5C 182.5,391.167 182.5,404.833 182.5,418.5 Z"/></g>
<g><path style="opacity:1" fill="#6e4acf" d="M 246.5,418.5 C 245.167,418.5 243.833,418.5 242.5,418.5C 242.5,404.833 242.5,391.167 242.5,377.5C 243.833,377.5 245.167,377.5 246.5,377.5C 246.5,391.167 246.5,404.833 246.5,418.5 Z"/></g>
<g><path style="opacity:1" fill="#10a7e9" d="M 332.5,418.5 C 331.167,418.5 329.833,418.5 328.5,418.5C 328.5,404.833 328.5,391.167 328.5,377.5C 329.833,377.5 331.167,377.5 332.5,377.5C 332.5,391.167 332.5,404.833 332.5,418.5 Z"/></g>
<g><path style="opacity:0.857" fill="#01d6fe" d="M 14.5,441.5 C 19.0832,440.343 21.7499,442.01 22.5,446.5C 20.6515,451.267 17.6515,452.267 13.5,449.5C 12.0248,446.557 12.3581,443.891 14.5,441.5 Z"/></g>
<g><path style="opacity:0.837" fill="#00d5fe" d="M 43.5,441.5 C 49.9889,441.156 51.9889,443.99 49.5,450C 43.1475,452.399 40.6475,450.232 42,443.5C 42.7172,442.956 43.2172,442.289 43.5,441.5 Z"/></g>
<g><path style="opacity:0.888" fill="#00d5fe" d="M 72.5,441.5 C 78.0001,440.831 80.1667,443.165 79,448.5C 75.6404,452.505 72.6404,452.172 70,447.5C 69.4585,444.918 70.2918,442.918 72.5,441.5 Z"/></g>
<g><path style="opacity:0.845" fill="#01d6fe" d="M 433.5,441.5 C 441.219,440.87 443.219,443.87 439.5,450.5C 431.983,451.306 429.983,448.306 433.5,441.5 Z"/></g>
<g><path style="opacity:0.835" fill="#01d7fe" d="M 462.5,441.5 C 467.083,440.343 469.75,442.01 470.5,446.5C 468.651,451.267 465.651,452.267 461.5,449.5C 460.025,446.557 460.358,443.891 462.5,441.5 Z"/></g>
<g><path style="opacity:0.848" fill="#00d5fe" d="M 491.5,441.5 C 497.989,441.156 499.989,443.99 497.5,450C 491.148,452.399 488.648,450.232 490,443.5C 490.717,442.956 491.217,442.289 491.5,441.5 Z"/></g>
<g><path style="opacity:0.845" fill="#01d5fe" d="M 15.5,466.5 C 20.3247,466.488 22.4914,468.821 22,473.5C 19.3388,476.966 16.3388,477.299 13,474.5C 12.0228,471.183 12.8562,468.516 15.5,466.5 Z"/></g>
<g><path style="opacity:0.828" fill="#00d5fe" d="M 44.5,466.5 C 50.7577,467.477 52.0911,470.644 48.5,476C 42.4983,476.993 40.3317,474.493 42,468.5C 42.9947,467.934 43.828,467.267 44.5,466.5 Z"/></g>
<g><path style="opacity:0.852" fill="#01d5fe" d="M 434.5,466.5 C 441.341,467.016 443.007,470.182 439.5,476C 431.349,476.198 429.683,473.031 434.5,466.5 Z"/></g>
<g><path style="opacity:0.833" fill="#00d4fe" d="M 463.5,466.5 C 468.325,466.488 470.491,468.821 470,473.5C 467.339,476.966 464.339,477.299 461,474.5C 460.023,471.183 460.856,468.516 463.5,466.5 Z"/></g>
<g><path style="opacity:0.865" fill="#00d5fe" d="M 492.5,466.5 C 498.758,467.477 500.091,470.644 496.5,476C 490.498,476.993 488.332,474.493 490,468.5C 490.995,467.934 491.828,467.267 492.5,466.5 Z"/></g>
<g><path style="opacity:0.863" fill="#01d6fe" d="M 72.5,466.5 C 79.6317,466.789 81.2983,469.956 77.5,476C 69.3492,476.198 67.6825,473.031 72.5,466.5 Z"/></g>
</svg>
