<?xml version="1.0" encoding="UTF-8"?>
<!DOCTYPE svg PUBLIC "-//W3C//DTD SVG 1.1//EN" "http://www.w3.org/Graphics/SVG/1.1/DTD/svg11.dtd">
<svg xmlns="http://www.w3.org/2000/svg" version="1.1" width="512px" height="512px" style="shape-rendering:geometricPrecision; text-rendering:geometricPrecision; image-rendering:optimizeQuality; fill-rule:evenodd; clip-rule:evenodd" xmlns:xlink="http://www.w3.org/1999/xlink">
<g><path style="opacity:0.98" fill="#fedd80" d="M 188.5,146.5 C 158.55,143.117 144.55,156.451 146.5,186.5C 131.112,183.669 115.779,184.002 100.5,187.5C 104.203,176.901 107.369,166.235 110,155.5C 101.017,149.934 92.1838,144.267 83.5,138.5C 91.2476,135.731 99.2476,133.897 107.5,133C 135.985,129.186 162.985,133.686 188.5,146.5 Z"/></g>
<g><path style="opacity:0.979" fill="#ffdd7f" d="M 426.5,138.5 C 417.218,143.942 408.052,149.608 399,155.5C 398.333,156.833 398.333,158.167 399,159.5C 402.355,168.727 405.188,178.06 407.5,187.5C 392.631,183.84 377.631,183.507 362.5,186.5C 364.773,157.44 351.44,144.107 322.5,146.5C 348.015,133.686 375.015,129.186 403.5,133C 411.545,133.771 419.212,135.604 426.5,138.5 Z"/></g>
<g><path style="opacity:0.985" fill="#8db9fe" d="M 83.5,138.5 C 92.1838,144.267 101.017,149.934 110,155.5C 107.369,166.235 104.203,176.901 100.5,187.5C 66.9609,201.546 50.7942,226.879 52,263.5C 57.7266,297.726 77.5599,318.393 111.5,325.5C 105.323,331.841 98.656,337.674 91.5,343C 89.552,344.439 88.2186,346.272 87.5,348.5C 92.4534,358.072 97.1201,367.739 101.5,377.5C 44.679,364.014 10.679,328.681 -0.5,271.5C -0.5,260.833 -0.5,250.167 -0.5,239.5C 8.42585,189.988 36.4259,156.321 83.5,138.5 Z"/></g>
<g><path style="opacity:0.99" fill="#ff7d7a" d="M 426.5,138.5 C 439.609,142.388 451.609,148.388 462.5,156.5C 492.868,197.935 497.702,242.268 477,289.5C 464.263,314.404 445.43,333.071 420.5,345.5C 420.167,345.5 419.833,345.5 419.5,345.5C 411.867,339.203 404.534,332.536 397.5,325.5C 432.519,319.314 453.019,298.648 459,263.5C 460.764,234.197 449.597,211.363 425.5,195C 419.812,191.653 413.812,189.153 407.5,187.5C 405.188,178.06 402.355,168.727 399,159.5C 398.333,158.167 398.333,156.833 399,155.5C 408.052,149.608 417.218,143.942 426.5,138.5 Z"/></g>
<g><path style="opacity:0.988" fill="#fece61" d="M 188.5,146.5 C 198.331,151.666 207.331,158 215.5,165.5C 212.678,166.507 209.678,167.34 206.5,168C 194.849,168.939 183.183,169.605 171.5,170C 171,170.5 170.5,171 170,171.5C 169.829,179.677 169.329,187.677 168.5,195.5C 161.626,191.397 154.293,188.397 146.5,186.5C 144.55,156.451 158.55,143.117 188.5,146.5 Z"/></g>
<g><path style="opacity:0.989" fill="#fece61" d="M 322.5,146.5 C 351.44,144.107 364.773,157.44 362.5,186.5C 354.64,189.097 347.307,192.763 340.5,197.5C 339.67,189.01 339.17,180.343 339,171.5C 338.25,170.874 337.416,170.374 336.5,170C 330.509,169.501 324.509,169.334 318.5,169.5C 310.644,168.894 302.977,167.894 295.5,166.5C 303.349,158.323 312.349,151.656 322.5,146.5 Z"/></g>
<g><path style="opacity:0.995" fill="#86e7cf" d="M 295.5,166.5 C 302.977,167.894 310.644,168.894 318.5,169.5C 318.667,196.502 318.5,223.502 318,250.5C 315.362,279.274 303.529,303.441 282.5,323C 266.882,335.131 250.882,346.631 234.5,357.5C 228.022,353.424 221.689,349.09 215.5,344.5C 207.928,338.434 200.762,331.767 194,324.5C 189.478,318.1 184.978,311.767 180.5,305.5C 173.867,292.304 170.034,278.304 169,263.5C 168.5,240.836 168.333,218.169 168.5,195.5C 169.329,187.677 169.829,179.677 170,171.5C 170.5,171 171,170.5 171.5,170C 183.183,169.605 194.849,168.939 206.5,168C 209.678,167.34 212.678,166.507 215.5,165.5C 229.345,163.746 242.345,159.413 254.5,152.5C 267.356,159.563 281.022,164.23 295.5,166.5 Z"/></g>
<g><path style="opacity:0.983" fill="#ff6464" d="M 462.5,156.5 C 489.88,177.586 506.213,205.253 511.5,239.5C 511.5,250.167 511.5,260.833 511.5,271.5C 503.23,318.943 476.897,352.11 432.5,371C 424.056,374.111 415.39,376.278 406.5,377.5C 411.075,368.408 415.908,359.408 421,350.5C 421.384,348.803 421.218,347.137 420.5,345.5C 445.43,333.071 464.263,314.404 477,289.5C 497.702,242.268 492.868,197.935 462.5,156.5 Z"/></g>
<g><path style="opacity:0.995" fill="#5de0c3" d="M 318.5,169.5 C 324.509,169.334 330.509,169.501 336.5,170C 337.416,170.374 338.25,170.874 339,171.5C 339.17,180.343 339.67,189.01 340.5,197.5C 340.883,222.192 340.383,246.858 339,271.5C 337.139,282.581 333.972,293.248 329.5,303.5C 324.585,310.931 319.419,318.264 314,325.5C 307.904,332.102 301.404,338.102 294.5,343.5C 283.212,352.149 271.546,360.316 259.5,368C 255.833,368.667 252.167,368.667 248.5,368C 243.586,364.723 238.92,361.223 234.5,357.5C 250.882,346.631 266.882,335.131 282.5,323C 303.529,303.441 315.362,279.274 318,250.5C 318.5,223.502 318.667,196.502 318.5,169.5 Z"/></g>
<g><path style="opacity:1" fill="#5de1c4" d="M 247.5,200.5 C 276.468,199.718 295.301,213.052 304,240.5C 307.166,262.017 300.333,279.517 283.5,293C 262.098,305.292 241.432,304.292 221.5,290C 206.742,276.29 201.242,259.457 205,239.5C 211.741,218.254 225.907,205.254 247.5,200.5 Z"/></g>
<g><path style="opacity:0.97" fill="#cee0ea" d="M 378.5,211.5 C 386.684,211.537 389.851,215.537 388,223.5C 382.333,246.833 376.667,270.167 371,293.5C 368.167,298.777 364,300.277 358.5,298C 356.129,296.257 354.795,293.923 354.5,291C 360.613,265.38 367.113,239.88 374,214.5C 375.409,213.219 376.909,212.219 378.5,211.5 Z"/></g>
<g><path style="opacity:0.972" fill="#cee0ea" d="M 88.5,222.5 C 93.1785,222.334 97.8452,222.501 102.5,223C 105.516,224.529 106.849,227.029 106.5,230.5C 105.922,236.47 102.589,239.136 96.5,238.5C 96.8798,244.421 95.8798,250.088 93.5,255.5C 95.8798,260.912 96.8798,266.579 96.5,272.5C 106.147,272.774 108.981,277.44 105,286.5C 85.5307,292.381 76.864,285.047 79,264.5C 73,258.5 73,252.5 79,246.5C 79.2096,240.769 79.8763,235.103 81,229.5C 82.7424,226.254 85.2424,223.921 88.5,222.5 Z"/></g>
<g><path style="opacity:0.982" fill="#cde0ea" d="M 399.5,227.5 C 402.187,227.336 404.854,227.503 407.5,228C 415,235.5 422.5,243 430,250.5C 432,253.833 432,257.167 430,260.5C 422.5,268 415,275.5 407.5,283C 397.667,285.167 393.833,281.333 396,271.5C 401.348,266.319 406.515,260.985 411.5,255.5C 406.515,250.015 401.348,244.681 396,239.5C 394.593,234.556 395.759,230.556 399.5,227.5 Z"/></g>
<g><path style="opacity:1" fill="#11d2b3" d="M 271.5,230.5 C 281.752,230.671 284.585,235.337 280,244.5C 271.5,254.333 263,264.167 254.5,274C 251.97,275.422 249.303,275.755 246.5,275C 238.906,268.09 232.906,260.09 228.5,251C 229.704,244.894 233.371,242.561 239.5,244C 243.369,247.534 246.869,251.367 250,255.5C 257.061,246.949 264.227,238.616 271.5,230.5 Z"/></g>
<g><path style="opacity:0.955" fill="#cee0ea" d="M 110.5,247.5 C 119.657,246.489 123.49,250.489 122,259.5C 117.625,264.381 112.958,264.715 108,260.5C 105.606,255.527 106.44,251.194 110.5,247.5 Z"/></g>
<g><path style="opacity:0.931" fill="#cee0ea" d="M 139.5,247.5 C 146.304,246.221 150.304,248.888 151.5,255.5C 150.303,262.273 146.303,264.773 139.5,263C 135.723,260.089 134.556,256.256 136,251.5C 137.102,250.051 138.269,248.718 139.5,247.5 Z"/></g>
<g><path style="opacity:0.988" fill="#fecd61" d="M 329.5,303.5 C 334.084,309.11 339.418,313.776 345.5,317.5C 344.648,320.223 343.481,322.89 342,325.5C 323.425,345.766 327.925,356.599 355.5,358C 370.365,358.924 385.032,357.591 399.5,354C 406.593,351.947 413.26,349.114 419.5,345.5C 419.833,345.5 420.167,345.5 420.5,345.5C 421.218,347.137 421.384,348.803 421,350.5C 415.908,359.408 411.075,368.408 406.5,377.5C 368.966,383.449 334.966,375.282 304.5,353C 300.666,350.332 297.333,347.165 294.5,343.5C 301.404,338.102 307.904,332.102 314,325.5C 319.419,318.264 324.585,310.931 329.5,303.5 Z"/></g>
<g><path style="opacity:0.989" fill="#fece61" d="M 180.5,305.5 C 184.978,311.767 189.478,318.1 194,324.5C 200.762,331.767 207.928,338.434 215.5,344.5C 210.364,350.306 204.364,354.973 197.5,358.5C 182.867,347.856 171.534,334.523 163.5,318.5C 169.427,314.581 175.094,310.248 180.5,305.5 Z"/></g>
<g><path style="opacity:0.99" fill="#ffdd7f" d="M 345.5,317.5 C 362.002,325.667 379.336,328.334 397.5,325.5C 404.534,332.536 411.867,339.203 419.5,345.5C 413.26,349.114 406.593,351.947 399.5,354C 385.032,357.591 370.365,358.924 355.5,358C 327.925,356.599 323.425,345.766 342,325.5C 343.481,322.89 344.648,320.223 345.5,317.5 Z"/></g>
<g><path style="opacity:0.988" fill="#fedd80" d="M 163.5,318.5 C 171.534,334.523 182.867,347.856 197.5,358.5C 176.216,373.075 152.55,379.742 126.5,378.5C 118.149,378.394 109.816,378.061 101.5,377.5C 97.1201,367.739 92.4534,358.072 87.5,348.5C 88.2186,346.272 89.552,344.439 91.5,343C 98.656,337.674 105.323,331.841 111.5,325.5C 129.596,328.528 146.929,326.195 163.5,318.5 Z"/></g>
</svg>
