<?xml version="1.0" encoding="UTF-8"?>
<!DOCTYPE svg PUBLIC "-//W3C//DTD SVG 1.1//EN" "http://www.w3.org/Graphics/SVG/1.1/DTD/svg11.dtd">
<svg xmlns="http://www.w3.org/2000/svg" version="1.1" width="2110px" height="2046px" style="shape-rendering:geometricPrecision; text-rendering:geometricPrecision; image-rendering:optimizeQuality; fill-rule:evenodd; clip-rule:evenodd" xmlns:xlink="http://www.w3.org/1999/xlink">
<g><path style="opacity:0.993" fill="#fefefe" d="M 1042.5,39.5 C 1071.1,37.2662 1098.1,42.7662 1123.5,56C 1353.05,165.939 1582.71,275.606 1812.5,385C 1855.63,404.132 1882.8,436.632 1894,482.5C 1950.84,730.203 2007.84,977.869 2065,1225.5C 2077.14,1270.65 2069.48,1311.99 2042,1349.5C 1877.67,1553.83 1713.33,1758.17 1549,1962.5C 1525.17,1987.5 1496.01,2002 1461.5,2006C 1191.17,2006.67 920.833,2006.67 650.5,2006C 612.791,2000.9 581.958,1983.74 558,1954.5C 395.713,1751.88 233.046,1549.54 70,1347.5C 43.6858,1309.91 36.6858,1268.91 49,1224.5C 106,976.5 163,728.5 220,480.5C 232.362,434.941 260.195,402.774 303.5,384C 535.288,273.606 766.955,162.939 998.5,52C 1012.69,45.6543 1027.35,41.4876 1042.5,39.5 Z"/></g>
<g><path style="opacity:1" fill="#106eed" d="M 1047.5,121.5 C 1068.67,121.028 1089,124.861 1108.5,133C 1322.71,235.606 1537.05,337.939 1751.5,440C 1786.97,456.764 1810.47,483.931 1822,521.5C 1875.82,754.464 1929.49,987.464 1983,1220.5C 1989.57,1258.55 1981.24,1292.89 1958,1323.5C 1808.62,1508.54 1659.62,1693.88 1511,1879.5C 1487.56,1906.14 1458.06,1920.97 1422.5,1924C 1178.17,1924.67 933.833,1924.67 689.5,1924C 648.92,1919.4 616.753,1900.56 593,1867.5C 447.046,1685.21 300.713,1503.21 154,1321.5C 134.306,1294.4 125.972,1264.07 129,1230.5C 182.175,997.467 235.508,764.467 289,531.5C 298.92,487.168 324.754,456.001 366.5,438C 577.167,337.333 787.833,236.667 998.5,136C 1014.15,128.391 1030.48,123.557 1047.5,121.5 Z"/></g>
<g><path style="opacity:1" fill="#fefefe" d="M 1051.5,357.5 C 1073.92,356.941 1088.42,367.274 1095,388.5C 1095.67,397.833 1095.67,407.167 1095,416.5C 1092.15,435.801 1089.48,455.135 1087,474.5C 1085.7,489.482 1085.37,504.482 1086,519.5C 1088,526.843 1092,532.843 1098,537.5C 1099.24,543.435 1099.74,549.435 1099.5,555.5C 1225.57,568.041 1332.57,619.375 1420.5,709.5C 1425.3,706.529 1429.97,703.362 1434.5,700C 1445.95,701.555 1456.28,698.888 1465.5,692C 1476.02,683.236 1486.35,674.236 1496.5,665C 1508.8,651.033 1521.47,637.366 1534.5,624C 1540.5,619.333 1546.5,614.667 1552.5,610C 1574.3,600.409 1592.14,605.242 1606,624.5C 1612.45,638.809 1611.79,652.809 1604,666.5C 1598.3,672.587 1592.14,678.087 1585.5,683C 1569.83,692.838 1553.83,702.171 1537.5,711C 1523.3,720.267 1509.63,730.267 1496.5,741C 1490.2,747.897 1487.03,756.064 1487,765.5C 1482.51,768.988 1478.35,772.821 1474.5,777C 1543.27,882.926 1570.1,998.759 1555,1124.5C 1559.73,1126.23 1564.57,1127.73 1569.5,1129C 1573.83,1136 1579.5,1141.67 1586.5,1146C 1620.32,1154.35 1654.65,1159.02 1689.5,1160C 1701.67,1161.29 1713,1164.96 1723.5,1171C 1738.87,1186 1741.7,1203.17 1732,1222.5C 1723.93,1234.54 1712.6,1240.54 1698,1240.5C 1690.42,1239.52 1682.92,1238.02 1675.5,1236C 1653.05,1227.11 1630.38,1218.78 1607.5,1211C 1595.76,1207.79 1583.93,1204.95 1572,1202.5C 1565,1203.05 1558.84,1205.55 1553.5,1210C 1548.25,1210.53 1543.09,1210.03 1538,1208.5C 1536.89,1208.59 1535.89,1208.92 1535,1209.5C 1494.97,1329.17 1421.3,1421.83 1314,1487.5C 1314.5,1493.36 1316.34,1498.86 1319.5,1504C 1314.12,1514.52 1314.28,1525.02 1320,1535.5C 1325.26,1546.42 1330.93,1557.08 1337,1567.5C 1348,1583.83 1359,1600.17 1370,1616.5C 1374.5,1624.49 1378.16,1632.82 1381,1641.5C 1383.38,1661.24 1375.88,1675.74 1358.5,1685C 1340.98,1691.56 1325.82,1688.06 1313,1674.5C 1308.22,1667.27 1304.22,1659.61 1301,1651.5C 1294.82,1631.8 1288.49,1612.13 1282,1592.5C 1276.55,1578.93 1270.55,1565.6 1264,1552.5C 1259.12,1545.97 1252.62,1541.8 1244.5,1540C 1241.2,1535.22 1238.03,1530.39 1235,1525.5C 1116.36,1568.47 997.861,1568.14 879.5,1524.5C 876.248,1529.33 873.248,1534.33 870.5,1539.5C 859.109,1542.06 851.275,1548.73 847,1559.5C 841.787,1569.26 837.12,1579.26 833,1589.5C 826.359,1609.39 820.026,1629.39 814,1649.5C 810.59,1657.32 806.923,1664.99 803,1672.5C 786.854,1690.46 768.354,1693.29 747.5,1681C 735.157,1670.64 730.323,1657.47 733,1641.5C 736.053,1633.73 739.386,1626.06 743,1618.5C 751.942,1604.56 761.276,1590.89 771,1577.5C 781.288,1561.26 790.288,1544.26 798,1526.5C 799.08,1518.78 798.246,1511.28 795.5,1504C 797.822,1498.22 799.655,1492.39 801,1486.5C 693.81,1421.46 619.976,1329.46 579.5,1210.5C 574.317,1209.66 569.151,1210 564,1211.5C 556.644,1207.58 548.81,1204.91 540.5,1203.5C 528.718,1205.86 517.051,1208.7 505.5,1212C 482.616,1219.78 459.949,1228.11 437.5,1237C 429.613,1239.14 421.613,1240.64 413.5,1241.5C 393.379,1239.22 380.879,1228.22 376,1208.5C 374.214,1188.57 382.38,1174.4 400.5,1166C 407.493,1164.34 414.493,1162.67 421.5,1161C 456.988,1159.91 491.988,1155.24 526.5,1147C 533.459,1142.38 539.459,1136.71 544.5,1130C 548.787,1128.51 553.12,1127.18 557.5,1126C 544.668,1017.58 563.501,914.751 614,817.5C 621.538,803.584 629.705,790.084 638.5,777C 634.966,773.131 631.133,769.631 627,766.5C 625.996,754.991 621.162,745.491 612.5,738C 601.78,729.613 590.78,721.613 579.5,714C 562.335,704.252 545.335,694.252 528.5,684C 517.333,677.174 509.499,667.674 505,655.5C 499.988,630.678 509.488,614.511 533.5,607C 549.305,605.49 562.972,610.157 574.5,621C 590.833,638 607.167,655 623.5,672C 633.208,680.71 643.208,689.043 653.5,697C 661.697,701.392 670.364,702.726 679.5,701C 683.324,704.079 687.324,706.912 691.5,709.5C 779.834,618.507 887.5,566.84 1014.5,554.5C 1014.33,549.156 1014.5,543.823 1015,538.5C 1020.6,533.567 1024.6,527.567 1027,520.5C 1027.67,506.167 1027.67,491.833 1027,477.5C 1024.55,458.139 1021.88,438.806 1019,419.5C 1018.33,408.833 1018.33,398.167 1019,387.5C 1023.97,371.031 1034.8,361.031 1051.5,357.5 Z"/></g>
<g><path style="opacity:1" fill="#116eed" d="M 1004.5,658.5 C 1005.5,658.5 1006.5,658.5 1007.5,658.5C 1007.5,659.833 1007.5,661.167 1007.5,662.5C 1004.28,728.522 1000.61,794.522 996.5,860.5C 991.195,886.639 975.529,896.805 949.5,891C 890.947,851.112 832.947,810.445 775.5,769C 839.612,707.616 915.945,670.782 1004.5,658.5 Z"/></g>
<g><path style="opacity:1" fill="#116eed" d="M 1105.5,658.5 C 1195.13,669.653 1272.13,706.486 1336.5,769C 1282.11,808.388 1227.44,847.388 1172.5,886C 1154.53,896.52 1138.37,894.353 1124,879.5C 1120.09,873.771 1117.76,867.437 1117,860.5C 1113.28,793.15 1109.44,725.817 1105.5,658.5 Z"/></g>
<g><path style="opacity:0.769" fill="#73a1f4" d="M 1004.5,658.5 C 1005.57,657.566 1006.9,657.232 1008.5,657.5C 1008.78,659.415 1008.45,661.081 1007.5,662.5C 1007.5,661.167 1007.5,659.833 1007.5,658.5C 1006.5,658.5 1005.5,658.5 1004.5,658.5 Z"/></g>
<g><path style="opacity:1" fill="#116eed" d="M 714.5,845.5 C 767.038,890.862 818.872,937.195 870,984.5C 882.578,1002.89 880.744,1019.72 864.5,1035C 860.469,1037.02 856.469,1039.02 852.5,1041C 787.903,1059.81 723.236,1078.31 658.5,1096.5C 649.619,1006.56 668.286,922.892 714.5,845.5 Z"/></g>
<g><path style="opacity:1" fill="#116eed" d="M 1396.5,845.5 C 1425.88,891.644 1444.71,941.978 1453,996.5C 1457.82,1029.76 1458.49,1063.1 1455,1096.5C 1390.26,1077.44 1325.43,1058.61 1260.5,1040C 1236.82,1029.63 1229.98,1012.46 1240,988.5C 1241.98,985.688 1244.14,983.022 1246.5,980.5C 1296.55,935.449 1346.55,890.449 1396.5,845.5 Z"/></g>
<g><path style="opacity:1" fill="#116eed" d="M 1025.5,991.5 C 1046.5,991.333 1067.5,991.5 1088.5,992C 1101.17,1008 1113.83,1024 1126.5,1040C 1121.82,1060.25 1116.82,1080.41 1111.5,1100.5C 1093.39,1109.3 1075.23,1117.97 1057,1126.5C 1038.2,1117.76 1019.53,1108.76 1001,1099.5C 995.887,1079.26 991.553,1058.93 988,1038.5C 1000.33,1022.67 1012.83,1007 1025.5,991.5 Z"/></g>
<g><path style="opacity:1" fill="#116eed" d="M 1221.5,1156.5 C 1292.68,1166.97 1363.68,1178.64 1434.5,1191.5C 1403.32,1275.72 1350.32,1342.55 1275.5,1392C 1274.55,1392.48 1273.55,1392.65 1272.5,1392.5C 1248.97,1334.42 1225.14,1276.42 1201,1218.5C 1197.74,1211.05 1195.07,1203.38 1193,1195.5C 1192.27,1174.93 1201.77,1161.93 1221.5,1156.5 Z"/></g>
<g><path style="opacity:1" fill="#116eed" d="M 877.5,1157.5 C 899.889,1155.42 914.056,1165.09 920,1186.5C 921.051,1192.78 920.218,1198.78 917.5,1204.5C 917.709,1205.09 918.043,1205.59 918.5,1206C 892.538,1268.09 866.704,1330.26 841,1392.5C 765.74,1343.18 712.24,1276.34 680.5,1192C 746.293,1180.48 811.96,1168.98 877.5,1157.5 Z"/></g>
<g><path style="opacity:1" fill="#116eed" d="M 1050.5,1239.5 C 1066.92,1238.29 1079.42,1244.63 1088,1258.5C 1120.7,1317.04 1153.2,1375.71 1185.5,1434.5C 1122.9,1455.61 1058.9,1461.11 993.5,1451C 971.766,1447.4 950.432,1442.23 929.5,1435.5C 961.86,1374.45 995.027,1313.78 1029,1253.5C 1034.79,1246.51 1041.96,1241.84 1050.5,1239.5 Z"/></g>
</svg>
