<?xml version="1.0" encoding="UTF-8"?>
<!DOCTYPE svg PUBLIC "-//W3C//DTD SVG 1.1//EN" "http://www.w3.org/Graphics/SVG/1.1/DTD/svg11.dtd">
<svg xmlns="http://www.w3.org/2000/svg" version="1.1" width="512px" height="512px" style="shape-rendering:geometricPrecision; text-rendering:geometricPrecision; image-rendering:optimizeQuality; fill-rule:evenodd; clip-rule:evenodd" xmlns:xlink="http://www.w3.org/1999/xlink">
<g><path style="opacity:0.975" fill="#fe6600" d="M -0.5,316.5 C -0.5,245.167 -0.5,173.833 -0.5,102.5C 22.3554,98.8805 45.3554,97.7138 68.5,99C 121.032,106.22 141.199,135.72 129,187.5C 122.254,204.58 110.421,216.746 93.5,224C 72.0522,231.74 50.0522,233.906 27.5,230.5C 27.5,259.167 27.5,287.833 27.5,316.5C 18.1667,316.5 8.83333,316.5 -0.5,316.5 Z M 37.5,121.5 C 46.5062,121.334 55.5062,121.5 64.5,122C 94.601,126.417 107.434,143.584 103,173.5C 99.2235,189.945 89.2235,200.612 73,205.5C 57.9069,209.097 42.7403,209.43 27.5,206.5C 27.5,178.833 27.5,151.167 27.5,123.5C 31.0399,123.247 34.3733,122.581 37.5,121.5 Z"/></g>
<g><path style="opacity:0.974" fill="#fe6600" d="M 511.5,149.5 C 511.5,158.167 511.5,166.833 511.5,175.5C 503.997,206.493 484.33,224.659 452.5,230C 437.184,232.999 421.851,233.166 406.5,230.5C 406.5,259.167 406.5,287.833 406.5,316.5C 397.167,316.5 387.833,316.5 378.5,316.5C 378.5,245.167 378.5,173.833 378.5,102.5C 404.051,98.4065 429.718,97.5732 455.5,100C 485.425,104.108 504.092,120.608 511.5,149.5 Z M 416.5,121.5 C 434.981,118.979 452.315,122.145 468.5,131C 482.384,144.168 486.55,160.001 481,178.5C 473.491,196.316 459.991,206.149 440.5,208C 429.083,208.923 417.75,208.423 406.5,206.5C 406.5,178.833 406.5,151.167 406.5,123.5C 410.04,123.247 413.373,122.581 416.5,121.5 Z"/></g>
<g><path style="opacity:0.966" fill="#fe6600" d="M 169.5,99.5 C 179.167,99.5 188.833,99.5 198.5,99.5C 198.5,129.833 198.5,160.167 198.5,190.5C 232.833,190.5 267.167,190.5 301.5,190.5C 301.5,160.167 301.5,129.833 301.5,99.5C 311.167,99.5 320.833,99.5 330.5,99.5C 330.5,171.833 330.5,244.167 330.5,316.5C 320.833,316.5 311.167,316.5 301.5,316.5C 301.5,282.833 301.5,249.167 301.5,215.5C 267.167,215.5 232.833,215.5 198.5,215.5C 198.5,249.167 198.5,282.833 198.5,316.5C 188.833,316.5 179.167,316.5 169.5,316.5C 169.5,244.167 169.5,171.833 169.5,99.5 Z"/></g>
<g><path style="opacity:0.957" fill="#22acdd" d="M -0.5,386.5 C 170.167,386.5 340.833,386.5 511.5,386.5C 511.5,395.167 511.5,403.833 511.5,412.5C 340.833,412.5 170.167,412.5 -0.5,412.5C -0.5,403.833 -0.5,395.167 -0.5,386.5 Z"/></g>
</svg>
