<?xml version="1.0" encoding="UTF-8"?>
<!DOCTYPE svg PUBLIC "-//W3C//DTD SVG 1.1//EN" "http://www.w3.org/Graphics/SVG/1.1/DTD/svg11.dtd">
<svg xmlns="http://www.w3.org/2000/svg" version="1.1" width="1404px" height="1400px" style="shape-rendering:geometricPrecision; text-rendering:geometricPrecision; image-rendering:optimizeQuality; fill-rule:evenodd; clip-rule:evenodd" xmlns:xlink="http://www.w3.org/1999/xlink">
<g><path style="opacity:0.976" fill="#f2edee" d="M 764.5,115.5 C 741.642,137.856 718.809,160.523 696,183.5C 695.667,183.167 695.333,182.833 695,182.5C 694.53,183.577 694.697,184.577 695.5,185.5C 689.5,185.5 683.5,185.5 677.5,185.5C 700.424,162.241 723.424,138.908 746.5,115.5C 752.542,115.117 758.542,115.117 764.5,115.5 Z"/></g>
<g><path style="opacity:0.997" fill="#fefdfd" d="M 675.5,115.5 C 677.833,115.5 680.167,115.5 682.5,115.5C 657.84,140.993 632.673,165.993 607,190.5C 606.517,191.448 606.351,192.448 606.5,193.5C 603.692,194.929 600.692,195.595 597.5,195.5C 622.47,168.696 648.303,142.696 675,117.5C 675.464,116.906 675.631,116.239 675.5,115.5 Z"/></g>
<g><path style="opacity:0.998" fill="#f0ebec" d="M 682.5,115.5 C 685.5,115.5 688.5,115.5 691.5,115.5C 666.548,141.119 641.215,166.452 615.5,191.5C 612.877,193.265 609.877,193.932 606.5,193.5C 606.351,192.448 606.517,191.448 607,190.5C 632.673,165.993 657.84,140.993 682.5,115.5 Z"/></g>
<g><path style="opacity:1" fill="#fefefe" d="M 691.5,115.5 C 693.833,115.5 696.167,115.5 698.5,115.5C 673.785,140.548 649.118,165.548 624.5,190.5C 621.609,191.403 618.609,191.736 615.5,191.5C 641.215,166.452 666.548,141.119 691.5,115.5 Z"/></g>
<g><path style="opacity:1" fill="#f0ebec" d="M 698.5,115.5 C 701.5,115.5 704.5,115.5 707.5,115.5C 683.944,139.557 660.11,163.557 636,187.5C 635.536,188.094 635.369,188.761 635.5,189.5C 631.846,189.942 628.179,190.276 624.5,190.5C 649.118,165.548 673.785,140.548 698.5,115.5 Z"/></g>
<g><path style="opacity:1" fill="#fefdfd" d="M 707.5,115.5 C 709.833,115.5 712.167,115.5 714.5,115.5C 690.424,139.908 666.424,164.241 642.5,188.5C 640.283,189.369 637.95,189.702 635.5,189.5C 635.369,188.761 635.536,188.094 636,187.5C 660.11,163.557 683.944,139.557 707.5,115.5 Z"/></g>
<g><path style="opacity:0.999" fill="#f0ebec" d="M 714.5,115.5 C 717.5,115.5 720.5,115.5 723.5,115.5C 700.61,138.89 677.444,162.224 654,185.5C 653.536,186.094 653.369,186.761 653.5,187.5C 649.821,187.724 646.154,188.058 642.5,188.5C 666.424,164.241 690.424,139.908 714.5,115.5 Z"/></g>
<g><path style="opacity:0.997" fill="#fefefe" d="M 723.5,115.5 C 725.833,115.5 728.167,115.5 730.5,115.5C 707.091,139.241 683.758,162.908 660.5,186.5C 658.283,187.369 655.95,187.702 653.5,187.5C 653.369,186.761 653.536,186.094 654,185.5C 677.444,162.224 700.61,138.89 723.5,115.5 Z"/></g>
<g><path style="opacity:0.996" fill="#f0eaeb" d="M 730.5,115.5 C 733.5,115.5 736.5,115.5 739.5,115.5C 716.777,138.724 693.777,161.89 670.5,185C 671.793,185.49 673.127,185.657 674.5,185.5C 670.03,186.486 665.363,186.819 660.5,186.5C 683.758,162.908 707.091,139.241 730.5,115.5 Z"/></g>
<g><path style="opacity:0.991" fill="#fefefe" d="M 739.5,115.5 C 741.833,115.5 744.167,115.5 746.5,115.5C 723.424,138.908 700.424,162.241 677.5,185.5C 676.5,185.5 675.5,185.5 674.5,185.5C 673.127,185.657 671.793,185.49 670.5,185C 693.777,161.89 716.777,138.724 739.5,115.5 Z"/></g>
<g><path style="opacity:0.974" fill="#fefefe" d="M 764.5,115.5 C 766.735,115.205 768.735,115.539 770.5,116.5C 747.14,139.194 724.14,162.194 701.5,185.5C 699.5,185.5 697.5,185.5 695.5,185.5C 694.697,184.577 694.53,183.577 695,182.5C 695.333,182.833 695.667,183.167 696,183.5C 718.809,160.523 741.642,137.856 764.5,115.5 Z"/></g>
<g><path style="opacity:0.965" fill="#f4f0f1" d="M 770.5,116.5 C 775.749,116.977 780.749,117.31 785.5,117.5C 763.276,140.059 740.942,162.726 718.5,185.5C 712.833,185.5 707.167,185.5 701.5,185.5C 724.14,162.194 747.14,139.194 770.5,116.5 Z"/></g>
<g><path style="opacity:0.961" fill="#fefefe" d="M 785.5,117.5 C 787.5,117.833 789.5,118.167 791.5,118.5C 769.424,140.908 747.424,163.241 725.5,185.5C 723.167,185.5 720.833,185.5 718.5,185.5C 740.942,162.726 763.276,140.059 785.5,117.5 Z"/></g>
<g><path style="opacity:0.983" fill="#f6f2f2" d="M 675.5,115.5 C 675.631,116.239 675.464,116.906 675,117.5C 648.303,142.696 622.47,168.696 597.5,195.5C 499.255,216.115 414.255,261.115 342.5,330.5C 342.36,328.876 343.027,327.71 344.5,327C 344.167,326.667 343.833,326.333 343.5,326C 344.448,325.517 345.448,325.351 346.5,325.5C 347.264,322.213 349.097,319.546 352,317.5C 411.644,259.355 470.81,200.022 529.5,139.5C 534.455,137.235 539.788,135.402 545.5,134C 560.272,130.205 574.939,127.205 589.5,125C 592.744,124.03 595.91,122.863 599,121.5C 602.178,122.998 605.011,122.498 607.5,120C 623.391,118.298 639.224,116.465 655,114.5C 661.199,115.265 668.032,115.599 675.5,115.5 Z"/></g>
<g><path style="opacity:0.004" fill="#fefffe" d="M 828.5,123.5 C 829.833,124.167 829.833,124.167 828.5,123.5 Z"/></g>
<g><path style="opacity:0.988" fill="#eee9eb" d="M 507.5,147.5 C 392.221,263.446 276.554,379.113 160.5,494.5C 159.761,494.631 159.094,494.464 158.5,494C 160.665,489.332 163.332,484.999 166.5,481C 165.833,480.667 165.167,480.333 164.5,480C 164.728,479.601 165.062,479.435 165.5,479.5C 275.785,370.882 385.452,261.549 494.5,151.5C 495.736,149.957 497.402,148.957 499.5,148.5C 500.086,148.709 500.586,149.043 501,149.5C 502.789,147.771 504.956,147.104 507.5,147.5 Z"/></g>
<g><path style="opacity:0.983" fill="#fefefe" d="M 494.5,151.5 C 385.452,261.549 275.785,370.882 165.5,479.5C 166.282,475.937 167.616,472.603 169.5,469.5C 273.581,366.086 377.248,262.419 480.5,158.5C 481.066,156.922 482.066,155.588 483.5,154.5C 487.291,153.2 490.957,152.2 494.5,151.5 Z"/></g>
<g><path style="opacity:0.004" fill="#eeeced" d="M 924.5,153.5 C 925.833,154.167 925.833,154.167 924.5,153.5 Z"/></g>
<g><path style="opacity:0.992" fill="#eee9eb" d="M 480.5,158.5 C 377.248,262.419 273.581,366.086 169.5,469.5C 171.672,463.166 174.339,457.166 177.5,451.5C 273.806,356.861 369.472,261.528 464.5,165.5C 463.697,164.577 463.53,163.577 464,162.5C 465.117,162.665 466.284,162.998 467.5,163.5C 468.298,163.043 468.631,162.376 468.5,161.5C 469.825,162.953 470.658,162.619 471,160.5C 471.414,160.957 471.914,161.291 472.5,161.5C 475.035,160.1 477.702,159.1 480.5,158.5 Z"/></g>
<g><path style="opacity:0.004" fill="#fefffe" d="M 468.5,161.5 C 467.833,160.167 467.833,160.167 468.5,161.5 Z"/></g>
<g><path style="opacity:0.989" fill="#fefdfd" d="M 464.5,165.5 C 369.472,261.528 273.806,356.861 177.5,451.5C 178.975,447.217 180.975,443.217 183.5,439.5C 275.078,348.926 365.078,258.592 453.5,168.5C 456.104,168.226 458.604,166.893 461,164.5C 462.011,165.337 463.178,165.67 464.5,165.5 Z"/></g>
<g><path style="opacity:0.004" fill="#e0dfe3" d="M 952.5,165.5 C 953.833,166.167 953.833,166.167 952.5,165.5 Z"/></g>
<g><path style="opacity:0.984" fill="#eeeaeb" d="M 453.5,168.5 C 365.078,258.592 275.078,348.926 183.5,439.5C 183.389,438.883 183.056,438.383 182.5,438C 186.525,432.436 189.859,426.603 192.5,420.5C 273.806,340.861 354.472,260.528 434.5,179.5C 439.865,177.155 444.865,174.322 449.5,171C 449.167,170.667 448.833,170.333 448.5,170C 450.247,169.648 451.914,169.148 453.5,168.5 Z"/></g>
<g><path style="opacity:0.98" fill="#fefdfd" d="M 434.5,179.5 C 354.472,260.528 273.806,340.861 192.5,420.5C 195.075,415.255 198.075,410.255 201.5,405.5C 263.592,344.409 324.925,282.742 385.5,220.5C 386.552,220.649 387.552,220.483 388.5,220C 398.575,206.59 410.575,195.257 424.5,186C 423.906,185.536 423.239,185.369 422.5,185.5C 423.461,184.783 424.461,183.617 425.5,182C 428.208,180.931 430.875,179.764 433.5,178.5C 434.107,178.624 434.44,178.957 434.5,179.5 Z"/></g>
<g><path style="opacity:1" fill="#fe0000" d="M 674.5,185.5 C 675.5,185.5 676.5,185.5 677.5,185.5C 683.5,185.5 689.5,185.5 695.5,185.5C 697.5,185.5 699.5,185.5 701.5,185.5C 707.167,185.5 712.833,185.5 718.5,185.5C 720.833,185.5 723.167,185.5 725.5,185.5C 887.105,197.681 1016.61,268.014 1114,396.5C 1125.15,412.471 1135.65,428.804 1145.5,445.5C 1211.21,565.837 1227.87,692.837 1195.5,826.5C 1194.06,828.588 1193.39,830.921 1193.5,833.5C 1191.55,838.573 1190.21,843.906 1189.5,849.5C 1187.36,852.8 1186.02,856.467 1185.5,860.5C 1174.6,889.853 1161.93,918.519 1147.5,946.5C 1143.41,951.665 1140.08,957.332 1137.5,963.5C 1098.16,1026.18 1048.16,1078.84 987.5,1121.5C 979.894,1125.78 972.561,1130.45 965.5,1135.5C 958.329,1139.25 951.329,1143.25 944.5,1147.5C 939.973,1149.6 935.639,1151.93 931.5,1154.5C 809.999,1213.52 683.999,1225.02 553.5,1189C 420.636,1146.47 319.469,1064.64 250,943.5C 215.666,879.316 195.499,810.982 189.5,738.5C 189.905,728.607 189.239,718.941 187.5,709.5C 186.342,560.844 238.009,434.51 342.5,330.5C 414.255,261.115 499.255,216.115 597.5,195.5C 600.692,195.595 603.692,194.929 606.5,193.5C 609.877,193.932 612.877,193.265 615.5,191.5C 618.609,191.736 621.609,191.403 624.5,190.5C 628.179,190.276 631.846,189.942 635.5,189.5C 637.95,189.702 640.283,189.369 642.5,188.5C 646.154,188.058 649.821,187.724 653.5,187.5C 655.95,187.702 658.283,187.369 660.5,186.5C 665.363,186.819 670.03,186.486 674.5,185.5 Z"/></g>
<g><path style="opacity:0.004" fill="#fefffe" d="M 405.5,193.5 C 406.833,194.167 406.833,194.167 405.5,193.5 Z"/></g>
<g><path style="opacity:0.993" fill="#eeeaec" d="M 422.5,185.5 C 423.239,185.369 423.906,185.536 424.5,186C 410.575,195.257 398.575,206.59 388.5,220C 387.552,220.483 386.552,220.649 385.5,220.5C 324.925,282.742 263.592,344.409 201.5,405.5C 201.389,404.883 201.056,404.383 200.5,404C 206.237,394.764 212.904,386.264 220.5,378.5C 279.276,319.391 337.943,260.391 396.5,201.5C 396.953,200.542 397.619,199.708 398.5,199C 406.471,196.403 413.138,191.903 418.5,185.5C 419.726,186.363 421.06,186.363 422.5,185.5 Z"/></g>
<g><path style="opacity:0.004" fill="#fefffe" d="M 390.5,202.5 C 389.833,201.167 389.833,201.167 390.5,202.5 Z"/></g>
<g><path style="opacity:1" fill="#fafafa" d="M 396.5,201.5 C 337.943,260.391 279.276,319.391 220.5,378.5C 218.983,378.511 217.816,379.177 217,380.5C 220.024,374.151 223.857,368.151 228.5,362.5C 231.297,360.205 233.964,357.705 236.5,355C 235.044,354.577 234.544,353.744 235,352.5C 245.556,338.106 257.389,324.773 270.5,312.5C 294.299,289.202 317.965,265.702 341.5,242C 346.014,238.909 350.347,235.575 354.5,232C 354.272,231.601 353.938,231.435 353.5,231.5C 363.567,223.115 374.234,215.448 385.5,208.5C 387.538,206.004 389.205,204.004 390.5,202.5C 392.379,201.659 394.379,201.325 396.5,201.5 Z"/></g>
<g><path style="opacity:0.974" fill="#f6f3f3" d="M 791.5,118.5 C 796.851,118.986 802.017,120.319 807,122.5C 808.144,122.089 809.311,121.756 810.5,121.5C 813.734,122.701 816.901,124.035 820,125.5C 824.032,124.006 827.699,124.672 831,127.5C 831.561,126.978 832.228,126.645 833,126.5C 836.522,128.692 840.189,129.359 844,128.5C 848.701,130.322 853.368,131.989 858,133.5C 859,133.167 860,132.833 861,132.5C 866.264,134.956 871.764,136.789 877.5,138C 878.927,140.369 880.761,140.869 883,139.5C 884.667,140.833 886.333,142.167 888,143.5C 888.333,142.833 888.667,142.167 889,141.5C 891.18,144.333 893.847,145.333 897,144.5C 900.255,146.002 903.588,147.668 907,149.5C 907.561,148.978 908.228,148.645 909,148.5C 912.252,149.862 915.585,151.529 919,153.5C 920.516,150.949 921.349,151.282 921.5,154.5C 922.5,154.5 923.5,154.5 924.5,154.5C 928.375,157.835 932.708,159.668 937.5,160C 938.618,161.074 939.618,162.24 940.5,163.5C 942.329,162.718 943.829,163.384 945,165.5C 945.308,164.692 945.808,164.025 946.5,163.5C 947.951,165.559 949.951,166.559 952.5,166.5C 953.751,168.22 955.251,168.553 957,167.5C 957.483,168.448 957.649,169.448 957.5,170.5C 968.212,175.532 979.212,181.032 990.5,187C 999.805,193.355 1009.81,199.355 1020.5,205C 1027.38,211.701 1035.72,217.367 1045.5,222C 1047.95,224.903 1050.61,227.57 1053.5,230C 1064.44,236.947 1074.77,244.613 1084.5,253C 1101.25,267.744 1117.41,283.244 1133,299.5C 1138.23,305.623 1143.23,311.956 1148,318.5C 1155.45,324.767 1161.45,332.101 1166,340.5C 1171.02,345.313 1175.52,350.48 1179.5,356C 1179.17,356.333 1178.83,356.667 1178.5,357C 1182.78,364.234 1187.78,370.901 1193.5,377C 1195.64,381.958 1197.97,386.792 1200.5,391.5C 1182.11,409.555 1163.78,427.555 1145.5,445.5C 1135.65,428.804 1125.15,412.471 1114,396.5C 1016.61,268.014 887.105,197.681 725.5,185.5C 747.424,163.241 769.424,140.908 791.5,118.5 Z"/></g>
<g><path style="opacity:1" fill="#e1dfe0" d="M 353.5,231.5 C 353.938,231.435 354.272,231.601 354.5,232C 350.347,235.575 346.014,238.909 341.5,242C 317.965,265.702 294.299,289.202 270.5,312.5C 267.606,313.882 265.106,315.882 263,318.5C 262.333,317.833 262.333,317.167 263,316.5C 280.367,297.967 298.2,279.967 316.5,262.5C 327.931,251.067 340.264,240.734 353.5,231.5 Z"/></g>
<g><path style="opacity:0.571" fill="#9f9c9e" d="M 316.5,262.5 C 298.2,279.967 280.367,297.967 263,316.5C 262.333,317.167 262.333,317.833 263,318.5C 265.106,315.882 267.606,313.882 270.5,312.5C 257.389,324.773 245.556,338.106 235,352.5C 234.544,353.744 235.044,354.577 236.5,355C 233.964,357.705 231.297,360.205 228.5,362.5C 228.166,360.332 228.166,358.332 228.5,356.5C 251.07,326.748 276.07,298.915 303.5,273C 307.727,269.263 312.06,265.763 316.5,262.5 Z"/></g>
<g><path style="opacity:1" fill="#fffefe" d="M 779.5,363.5 C 793.927,363.593 808.261,363.593 822.5,363.5C 825.379,364.795 828.379,365.462 831.5,365.5C 831.16,368.144 831.827,370.477 833.5,372.5C 832.833,373.167 832.167,373.833 831.5,374.5C 832.981,378.091 834.148,381.758 835,385.5C 835.793,389.423 835.626,393.256 834.5,397C 818.17,397.5 801.837,397.667 785.5,397.5C 783.285,386.208 781.285,374.875 779.5,363.5 Z"/></g>
<g><path style="opacity:1" fill="#fffcfc" d="M 677.5,381.5 C 679.527,381.338 681.527,381.505 683.5,382C 689.12,388.742 694.62,395.575 700,402.5C 701.011,403.337 702.178,403.67 703.5,403.5C 703.167,406.5 704.5,407.833 707.5,407.5C 707.682,409.675 708.349,411.675 709.5,413.5C 709.471,415.029 708.804,416.196 707.5,417C 699.915,419.46 693.248,423.46 687.5,429C 681.819,429.988 677.153,432.655 673.5,437C 672.207,437.49 670.873,437.657 669.5,437.5C 669.833,434.5 668.5,433.167 665.5,433.5C 665.649,432.448 665.483,431.448 665,430.5C 661.333,426.833 657.667,423.167 654,419.5C 652.906,416.308 651.073,413.642 648.5,411.5C 647.571,410.311 647.238,408.978 647.5,407.5C 646.167,407.5 644.833,407.5 643.5,407.5C 643.617,405.516 642.95,403.85 641.5,402.5C 641.977,401.522 642.643,400.689 643.5,400C 648.743,398.377 653.41,395.711 657.5,392C 660.737,390.548 664.07,389.381 667.5,388.5C 670.828,386.167 674.161,383.834 677.5,381.5 Z"/></g>
<g><path style="opacity:0.004" fill="#fefffe" d="M 1202.5,392.5 C 1203.83,393.167 1203.83,393.167 1202.5,392.5 Z"/></g>
<g><path style="opacity:1" fill="#fffefe" d="M 803.5,399.5 C 820.06,399.232 836.727,399.565 853.5,400.5C 860.645,401.186 867.645,402.52 874.5,404.5C 875.167,404.167 875.833,403.833 876.5,403.5C 882.11,405.242 887.777,406.742 893.5,408C 908.779,413.967 924.112,419.967 939.5,426C 953.167,434.333 966.833,442.667 980.5,451C 981.448,451.483 982.448,451.649 983.5,451.5C 983.33,452.822 983.663,453.989 984.5,455C 986.833,456 989.167,457 991.5,458C 996.875,463.009 1002.21,468.009 1007.5,473C 1012.13,474.608 1015.96,477.441 1019,481.5C 1019.67,483.5 1019.67,485.5 1019,487.5C 1015.2,493.597 1011.03,499.431 1006.5,505C 1003.91,505.449 1001.91,504.449 1000.5,502C 999.552,501.517 998.552,501.351 997.5,501.5C 997.5,500.167 997.5,498.833 997.5,497.5C 996.022,497.762 994.689,497.429 993.5,496.5C 989.127,494.31 985.127,491.477 981.5,488C 971.366,483.38 961.032,479.38 950.5,476C 927.104,471.483 903.771,472.149 880.5,478C 877.059,480.789 873.059,482.123 868.5,482C 864.168,484.777 859.501,486.777 854.5,488C 851.688,488.946 849.355,490.613 847.5,493C 840.557,494.604 834.557,497.937 829.5,503C 826.319,504.633 822.986,505.966 819.5,507C 800.616,521.546 783.283,537.88 767.5,556C 767.85,557.257 768.517,557.591 769.5,557C 775.135,552.367 780.468,547.367 785.5,542C 786.793,541.51 788.127,541.343 789.5,541.5C 791.359,545.896 793.526,550.229 796,554.5C 802.099,561.489 807.266,569.155 811.5,577.5C 810.611,579.898 809.111,581.898 807,583.5C 805.145,590.081 801.979,595.915 797.5,601C 796.207,601.49 794.873,601.657 793.5,601.5C 793.5,600.167 793.5,598.833 793.5,597.5C 792.167,597.5 790.833,597.5 789.5,597.5C 789.5,596.167 789.5,594.833 789.5,593.5C 788.167,593.5 786.833,593.5 785.5,593.5C 785.649,592.448 785.483,591.448 785,590.5C 775.855,582.198 767.689,573.198 760.5,563.5C 758.318,568.193 755.151,572.193 751,575.5C 749.966,578.986 748.633,582.319 747,585.5C 744.744,588.159 742.577,590.826 740.5,593.5C 738.975,598.228 737.141,602.895 735,607.5C 732.347,609.43 731.014,612.096 731,615.5C 729.065,618.371 727.399,621.371 726,624.5C 724.333,630.833 722.667,637.167 721,643.5C 720,645.167 719,646.833 718,648.5C 715.48,661.971 712.647,675.304 709.5,688.5C 711.856,689.654 712.023,690.987 710,692.5C 708.728,707.807 707.894,723.141 707.5,738.5C 707.582,747.908 708.249,757.241 709.5,766.5C 709.21,768.044 708.544,769.377 707.5,770.5C 709.232,776.287 710.065,782.287 710,788.5C 712.023,790.013 711.856,791.346 709.5,792.5C 712.486,806.744 714.819,821.077 716.5,835.5C 719.167,848.833 721.833,862.167 724.5,875.5C 727.591,885.141 730.591,894.808 733.5,904.5C 733.167,905.167 732.833,905.833 732.5,906.5C 740.697,934.038 750.197,961.038 761,987.5C 761.808,989.579 761.641,991.579 760.5,993.5C 759.833,992.833 759.167,992.167 758.5,991.5C 755.833,994.167 753.167,994.167 750.5,991.5C 747.833,994.167 745.167,994.167 742.5,991.5C 739.833,994.167 737.167,994.167 734.5,991.5C 731.833,994.167 729.167,994.167 726.5,991.5C 723.833,994.167 721.167,994.167 718.5,991.5C 715.833,994.167 713.167,994.167 710.5,991.5C 707.833,994.167 705.167,994.167 702.5,991.5C 699.833,994.167 697.167,994.167 694.5,991.5C 691.833,994.167 689.167,994.167 686.5,991.5C 683.833,994.167 681.167,994.167 678.5,991.5C 675.833,994.167 673.167,994.167 670.5,991.5C 667.833,994.167 665.167,994.167 662.5,991.5C 659.833,994.167 657.167,994.167 654.5,991.5C 651.833,994.167 649.167,994.167 646.5,991.5C 643.833,994.167 641.167,994.167 638.5,991.5C 635.833,994.167 633.167,994.167 630.5,991.5C 627.833,994.167 625.167,994.167 622.5,991.5C 619.833,994.167 617.167,994.167 614.5,991.5C 611.833,994.167 609.167,994.167 606.5,991.5C 603.833,994.167 601.167,994.167 598.5,991.5C 595.833,994.167 593.167,994.167 590.5,991.5C 587.833,994.167 585.167,994.167 582.5,991.5C 579.833,994.167 577.167,994.167 574.5,991.5C 571.833,994.167 569.167,994.167 566.5,991.5C 563.833,994.167 561.167,994.167 558.5,991.5C 555.833,994.167 553.167,994.167 550.5,991.5C 547.833,994.167 545.167,994.167 542.5,991.5C 539.833,994.167 537.167,994.167 534.5,991.5C 531.833,994.167 529.167,994.167 526.5,991.5C 523.833,994.167 521.167,994.167 518.5,991.5C 515.833,994.167 513.167,994.167 510.5,991.5C 507.833,994.167 505.167,994.167 502.5,991.5C 499.833,994.167 497.167,994.167 494.5,991.5C 491.833,994.167 489.167,994.167 486.5,991.5C 483.833,994.167 481.167,994.167 478.5,991.5C 475.833,994.167 473.167,994.167 470.5,991.5C 467.833,994.167 465.167,994.167 462.5,991.5C 459.833,994.167 457.167,994.167 454.5,991.5C 452.477,993.173 450.144,993.84 447.5,993.5C 447.931,986.382 447.264,979.382 445.5,972.5C 446.833,964.5 446.833,956.5 445.5,948.5C 445.477,946.933 445.977,945.6 447,944.5C 447.195,935.785 447.695,927.119 448.5,918.5C 447.089,916.983 447.256,915.649 449,914.5C 449.333,908.833 449.667,903.167 450,897.5C 453.57,876.974 456.903,856.307 460,835.5C 462.734,827.065 464.734,818.398 466,809.5C 468.777,804.646 470.11,799.312 470,793.5C 473.007,786.474 475.007,779.141 476,771.5C 481.333,755.5 486.667,739.5 492,723.5C 494.959,720.902 496.293,717.568 496,713.5C 503.073,696.68 510.739,680.014 519,663.5C 520.578,660.343 521.578,657.009 522,653.5C 524.788,651.588 526.121,648.921 526,645.5C 529.238,640.358 531.904,635.025 534,629.5C 537.238,624.358 539.904,619.025 542,613.5C 549.137,602.747 555.137,591.414 560,579.5C 564.402,574.023 567.736,568.023 570,561.5C 574.362,555.812 578.695,550.145 583,544.5C 590.379,530.725 599.713,518.392 611,507.5C 611.333,506.167 611.667,504.833 612,503.5C 623.167,492.333 634.333,481.167 645.5,470C 652.706,466.215 659.04,461.215 664.5,455C 669.5,451.333 674.5,447.667 679.5,444C 683.802,443.714 687.135,441.714 689.5,438C 724.337,417.932 762.003,405.599 802.5,401C 803.056,400.617 803.389,400.117 803.5,399.5 Z"/></g>
<g><path style="opacity:1" fill="#fffbfb" d="M 942.5,399.5 C 946.459,402.146 950.792,404.313 955.5,406C 959.93,411.433 965.263,415.433 971.5,418C 975.313,421.736 979.313,425.236 983.5,428.5C 981.378,430.451 979.878,432.785 979,435.5C 977.561,437.448 975.728,438.781 973.5,439.5C 968.275,436.437 962.942,433.604 957.5,431C 956.5,430 955.5,429 954.5,428C 950.133,426.6 945.799,425.1 941.5,423.5C 941.23,415.445 941.563,407.445 942.5,399.5 Z"/></g>
<g><path style="opacity:0.004" fill="#fefffe" d="M 1218.5,420.5 C 1219.83,421.167 1219.83,421.167 1218.5,420.5 Z"/></g>
<g><path style="opacity:0.654" fill="#888689" d="M 228.5,356.5 C 228.166,358.332 228.166,360.332 228.5,362.5C 223.857,368.151 220.024,374.151 217,380.5C 217.816,379.177 218.983,378.511 220.5,378.5C 212.904,386.264 206.237,394.764 200.5,404C 201.056,404.383 201.389,404.883 201.5,405.5C 198.075,410.255 195.075,415.255 192.5,420.5C 189.859,426.603 186.525,432.436 182.5,438C 183.056,438.383 183.389,438.883 183.5,439.5C 180.975,443.217 178.975,447.217 177.5,451.5C 174.339,457.166 171.672,463.166 169.5,469.5C 167.616,472.603 166.282,475.937 165.5,479.5C 165.062,479.435 164.728,479.601 164.5,480C 165.167,480.333 165.833,480.667 166.5,481C 163.332,484.999 160.665,489.332 158.5,494C 159.094,494.464 159.761,494.631 160.5,494.5C 157.565,499.346 155.232,504.346 153.5,509.5C 150.606,510.882 148.106,512.882 146,515.5C 145.536,514.906 145.369,514.239 145.5,513.5C 144.435,510.293 145.601,507.959 149,506.5C 153,494.5 157,482.5 161,470.5C 164.432,466.636 167.099,462.302 169,457.5C 169.958,452.455 171.791,447.788 174.5,443.5C 174.291,442.914 173.957,442.414 173.5,442C 181.042,434.041 186.875,423.874 191,411.5C 199.872,400.086 207.039,388.586 212.5,377C 214.847,376.154 216.68,374.654 218,372.5C 220.778,366.588 224.278,361.255 228.5,356.5 Z"/></g>
<g><path style="opacity:1" fill="#fffcfb" d="M 549.5,481.5 C 552.953,483.739 556.286,486.239 559.5,489C 563.266,489.751 566.266,491.751 568.5,495C 575.944,499.719 583.611,503.886 591.5,507.5C 591.657,508.873 591.49,510.207 591,511.5C 586.167,515.191 582.834,519.858 581,525.5C 573.259,533.351 565.759,541.351 558.5,549.5C 557.081,546.582 554.748,545.082 551.5,545C 548.435,540.875 544.435,538.209 539.5,537C 536.669,534.838 534.002,532.505 531.5,530C 527.734,529.249 524.734,527.249 522.5,524C 520.235,522.882 517.901,522.049 515.5,521.5C 515.343,520.127 515.51,518.793 516,517.5C 527.762,505.927 538.928,493.927 549.5,481.5 Z"/></g>
<g><path style="opacity:1" fill="#fffcfc" d="M 935.5,489.5 C 945.769,490.978 956.102,493.311 966.5,496.5C 967.167,496.167 967.833,495.833 968.5,495.5C 969.804,500.719 969.804,505.886 968.5,511C 957.513,510.614 946.513,510.114 935.5,509.5C 935.5,502.833 935.5,496.167 935.5,489.5 Z"/></g>
<g><path style="opacity:0.004" fill="#f6f7f5" d="M 1250.5,490.5 C 1251.83,491.167 1251.83,491.167 1250.5,490.5 Z"/></g>
<g><path style="opacity:1" fill="#fffbfb" d="M 865.5,495.5 C 866.833,495.5 868.167,495.5 869.5,495.5C 871.07,502.811 872.236,510.144 873,517.5C 866.484,522.686 859.984,527.853 853.5,533C 851.527,533.495 849.527,533.662 847.5,533.5C 847.968,530.058 846.802,527.391 844,525.5C 841.544,518.942 838.21,512.942 834,507.5C 833.51,506.207 833.343,504.873 833.5,503.5C 842.21,502.893 850.543,500.893 858.5,497.5C 859.167,497.833 859.833,498.167 860.5,498.5C 862.759,498.216 864.426,497.216 865.5,495.5 Z"/></g>
<g><path style="opacity:0.856" fill="#7f7c7f" d="M 153.5,509.5 C 149.473,523.411 145.473,537.077 141.5,550.5C 141.608,551.442 141.941,552.275 142.5,553C 141.107,554.171 140.273,555.671 140,557.5C 139.737,562.017 138.737,566.351 137,570.5C 132.287,599.609 127.787,628.276 123.5,656.5C 123.5,654.833 123.5,653.167 123.5,651.5C 121.856,651.286 120.356,651.62 119,652.5C 118.91,649.538 120.243,647.204 123,645.5C 123.982,644.241 124.315,642.908 124,641.5C 121.297,644.371 118.464,647.038 115.5,649.5C 115.334,645.486 115.501,641.486 116,637.5C 117.751,635.51 118.751,633.177 119,630.5C 121.36,607.616 125.027,584.949 130,562.5C 131.316,561.026 132.316,559.359 133,557.5C 136.12,544.118 139.453,530.784 143,517.5C 143.608,515.934 144.442,514.6 145.5,513.5C 145.369,514.239 145.536,514.906 146,515.5C 148.106,512.882 150.606,510.882 153.5,509.5 Z"/></g>
<g><path style="opacity:0.965" fill="#f8f4f5" d="M 1200.5,391.5 C 1201.17,392.167 1201.83,392.833 1202.5,393.5C 1206.54,398.412 1210.2,403.578 1213.5,409C 1212.21,411.09 1212.88,412.424 1215.5,413C 1215.04,413.414 1214.71,413.914 1214.5,414.5C 1215.93,416.893 1217.26,419.226 1218.5,421.5C 1218.71,422.922 1219.21,424.255 1220,425.5C 1221.67,424.66 1221.83,425.16 1220.5,427C 1221.42,427.374 1222.25,427.874 1223,428.5C 1224.95,432.172 1227.12,435.672 1229.5,439C 1228.7,440.749 1229.37,442.082 1231.5,443C 1230.83,443.333 1230.17,443.667 1229.5,444C 1233.53,454.373 1238.86,464.707 1245.5,475C 1245.04,475.414 1244.71,475.914 1244.5,476.5C 1246.21,481.366 1248.21,486.032 1250.5,490.5C 1249.96,490.56 1249.62,490.893 1249.5,491.5C 1251.15,495.779 1252.65,500.112 1254,504.5C 1258.74,511.048 1261.24,518.214 1261.5,526C 1263.32,528.605 1263.99,531.272 1263.5,534C 1266.65,538.835 1268.15,544.335 1268,550.5C 1269.52,558.398 1271.85,566.064 1275,573.5C 1277.58,587.838 1280.08,602.171 1282.5,616.5C 1281.97,621.228 1282.8,625.895 1285,630.5C 1284.85,661.987 1285.68,693.32 1287.5,724.5C 1287.15,725.696 1286.65,725.696 1286,724.5C 1285.5,729.155 1285.33,733.821 1285.5,738.5C 1256.76,767.079 1228.09,795.912 1199.5,825C 1198.26,825.791 1196.92,826.291 1195.5,826.5C 1227.87,692.837 1211.21,565.837 1145.5,445.5C 1163.78,427.555 1182.11,409.555 1200.5,391.5 Z"/></g>
<g><path style="opacity:1" fill="#fffdfc" d="M 443.5,637.5 C 450.716,639.84 458.05,642.007 465.5,644C 475.048,648.608 484.715,652.941 494.5,657C 496.134,657.494 497.801,657.66 499.5,657.5C 499.664,660.187 499.497,662.854 499,665.5C 493.99,678.731 488.823,691.897 483.5,705C 482.167,705.667 480.833,705.667 479.5,705C 462.045,699.837 444.712,694.671 427.5,689.5C 428.499,684.94 429.332,680.273 430,675.5C 432.789,672.059 434.123,668.059 434,663.5C 437.974,655.137 441.141,646.47 443.5,637.5 Z"/></g>
<g><path style="opacity:1" fill="#fffcfc" d="M 737.5,639.5 C 741.812,640.155 745.812,641.655 749.5,644C 753.93,649.433 759.263,653.433 765.5,656C 767.546,658.903 770.213,660.736 773.5,661.5C 773.682,663.675 774.349,665.675 775.5,667.5C 774.365,673.328 772.532,678.994 770,684.5C 769.142,690.193 768.142,695.859 767,701.5C 766.077,702.759 765.243,704.092 764.5,705.5C 761.683,703.183 759.016,700.683 756.5,698C 755.552,697.517 754.552,697.351 753.5,697.5C 751.046,692.563 747.046,689.063 741.5,687C 737.833,683.333 734.167,679.667 730.5,676C 729.552,675.517 728.552,675.351 727.5,675.5C 727.5,674.167 727.5,672.833 727.5,671.5C 726.167,671.5 724.833,671.5 723.5,671.5C 723.092,668.401 724.259,666.067 727,664.5C 728.607,658.619 731.274,653.286 735,648.5C 735.401,645.301 736.234,642.301 737.5,639.5 Z"/></g>
<g><path style="opacity:0.999" fill="#6f6b6f" d="M 123.5,656.5 C 123.5,672.833 123.5,689.167 123.5,705.5C 122.959,719.761 123.959,733.761 126.5,747.5C 127.448,758.538 128.781,769.538 130.5,780.5C 128.964,778.975 127.964,776.975 127.5,774.5C 125.457,777.543 122.79,779.876 119.5,781.5C 118.799,774.06 117.466,766.727 115.5,759.5C 115.519,722.802 115.519,686.136 115.5,649.5C 118.464,647.038 121.297,644.371 124,641.5C 124.315,642.908 123.982,644.241 123,645.5C 120.243,647.204 118.91,649.538 119,652.5C 120.356,651.62 121.856,651.286 123.5,651.5C 123.5,653.167 123.5,654.833 123.5,656.5 Z"/></g>
<g><path style="opacity:1" fill="#fa4537" d="M 187.5,709.5 C 189.239,718.941 189.905,728.607 189.5,738.5C 188.135,729.031 187.468,719.365 187.5,709.5 Z"/></g>
<g><path style="opacity:1" fill="#b6b4b6" d="M 123.5,705.5 C 124.329,713.323 124.829,721.323 125,729.5C 125.654,728.304 126.154,728.304 126.5,729.5C 124.861,732.04 125.194,734.207 127.5,736C 126.54,739.73 126.207,743.563 126.5,747.5C 123.959,733.761 122.959,719.761 123.5,705.5 Z"/></g>
<g><path style="opacity:0.969" fill="#fefdfd" d="M 1285.5,738.5 C 1285.5,740.833 1285.5,743.167 1285.5,745.5C 1254.92,775.578 1224.42,805.911 1194,836.5C 1193.52,835.552 1193.35,834.552 1193.5,833.5C 1193.39,830.921 1194.06,828.588 1195.5,826.5C 1196.92,826.291 1198.26,825.791 1199.5,825C 1228.09,795.912 1256.76,767.079 1285.5,738.5 Z"/></g>
<g><path style="opacity:1" fill="#fffdfd" d="M 724.5,745.5 C 733.798,750.938 743.465,755.771 753.5,760C 754.357,760.689 755.023,761.522 755.5,762.5C 760.155,764.143 764.821,765.809 769.5,767.5C 769.855,781.685 770.521,795.685 771.5,809.5C 763.745,807.377 756.412,804.21 749.5,800C 742.644,798.128 735.977,795.795 729.5,793C 726.688,792.054 724.355,790.387 722.5,788C 721.552,787.517 720.552,787.351 719.5,787.5C 719.231,785.571 719.731,783.905 721,782.5C 721.333,771.5 721.667,760.5 722,749.5C 723.095,748.307 723.928,746.973 724.5,745.5 Z"/></g>
<g><path style="opacity:0.971" fill="#f3eeef" d="M 1285.5,745.5 C 1285.81,749.042 1285.48,752.375 1284.5,755.5C 1253.78,786.052 1223.12,816.885 1192.5,848C 1191.47,848.513 1190.47,849.013 1189.5,849.5C 1190.21,843.906 1191.55,838.573 1193.5,833.5C 1193.35,834.552 1193.52,835.552 1194,836.5C 1224.42,805.911 1254.92,775.578 1285.5,745.5 Z"/></g>
<g><path style="opacity:0.966" fill="#fefdfd" d="M 1284.5,755.5 C 1284.42,758.973 1283.76,762.306 1282.5,765.5C 1281.76,765.369 1281.09,765.536 1280.5,766C 1249.07,797.593 1217.41,829.093 1185.5,860.5C 1186.02,856.467 1187.36,852.8 1189.5,849.5C 1190.47,849.013 1191.47,848.513 1192.5,848C 1223.12,816.885 1253.78,786.052 1284.5,755.5 Z"/></g>
<g><path style="opacity:0.973" fill="#f7f3f4" d="M 1282.5,765.5 C 1280.6,782.88 1278.1,799.88 1275,816.5C 1273.46,818.477 1272.96,820.477 1273.5,822.5C 1272.96,824.261 1271.96,825.594 1270.5,826.5C 1269.32,827.504 1267.98,828.338 1266.5,829C 1228.46,867.546 1190.46,905.88 1152.5,944C 1151.1,945.438 1149.43,946.271 1147.5,946.5C 1161.93,918.519 1174.6,889.853 1185.5,860.5C 1217.41,829.093 1249.07,797.593 1280.5,766C 1281.09,765.536 1281.76,765.369 1282.5,765.5 Z"/></g>
<g><path style="opacity:0.004" fill="#69666a" d="M 117.5,788.5 C 119.441,790.011 119.941,792.011 119,794.5C 117.681,792.75 117.181,790.75 117.5,788.5 Z"/></g>
<g><path style="opacity:0.988" fill="#fefdfd" d="M 1270.5,826.5 C 1270.33,828.861 1269.99,831.194 1269.5,833.5C 1225.53,876.965 1181.7,920.632 1138,964.5C 1137.6,964.272 1137.43,963.938 1137.5,963.5C 1140.08,957.332 1143.41,951.665 1147.5,946.5C 1149.43,946.271 1151.1,945.438 1152.5,944C 1190.46,905.88 1228.46,867.546 1266.5,829C 1267.98,828.338 1269.32,827.504 1270.5,826.5 Z"/></g>
<g><path style="opacity:1" fill="#fffefd" d="M 385.5,833.5 C 406.33,834.959 426.997,836.292 447.5,837.5C 447.276,841.954 447.276,846.288 447.5,850.5C 447.192,851.308 446.692,851.975 446,852.5C 444.503,866.962 442.17,881.295 439,895.5C 437.983,897.376 437.149,899.376 436.5,901.5C 435.692,901.192 435.025,900.692 434.5,900C 416.126,898.65 397.793,896.483 379.5,893.5C 379.334,887.491 379.501,881.491 380,875.5C 382.34,861.662 384.173,847.662 385.5,833.5 Z"/></g>
<g><path style="opacity:0.991" fill="#f7f3f4" d="M 1269.5,833.5 C 1266.12,849.368 1261.95,865.035 1257,880.5C 1256.29,881.381 1255.46,882.047 1254.5,882.5C 1250.67,886.164 1246.67,889.664 1242.5,893C 1127.87,1008.82 1012.7,1123.99 897,1238.5C 896.308,1239.44 896.475,1240.1 897.5,1240.5C 884.778,1246.07 871.444,1250.4 857.5,1253.5C 900.965,1209.53 944.632,1165.7 988.5,1122C 988.272,1121.6 987.938,1121.43 987.5,1121.5C 1048.16,1078.84 1098.16,1026.18 1137.5,963.5C 1137.43,963.938 1137.6,964.272 1138,964.5C 1181.7,920.632 1225.53,876.965 1269.5,833.5 Z"/></g>
<g><path style="opacity:1" fill="#5e5b5e" d="M 130.5,780.5 C 136.078,817.736 145.078,854.069 157.5,889.5C 155.26,890.568 153.426,892.234 152,894.5C 151.586,894.043 151.086,893.709 150.5,893.5C 149.638,894.766 148.971,896.099 148.5,897.5C 145.828,892.813 143.662,887.813 142,882.5C 138.785,868.199 134.785,854.199 130,840.5C 125.303,821.074 121.803,801.407 119.5,781.5C 122.79,779.876 125.457,777.543 127.5,774.5C 127.964,776.975 128.964,778.975 130.5,780.5 Z"/></g>
<g><path style="opacity:0.004" fill="#656265" d="M 134.5,861.5 C 135.833,862.167 135.833,862.167 134.5,861.5 Z"/></g>
<g><path style="opacity:0.995" fill="#fefefe" d="M 1254.5,882.5 C 1253.7,885.579 1252.7,888.579 1251.5,891.5C 1135.5,1006.83 1019.83,1122.5 904.5,1238.5C 902.167,1239.17 899.833,1239.83 897.5,1240.5C 896.475,1240.1 896.308,1239.44 897,1238.5C 1012.7,1123.99 1127.87,1008.82 1242.5,893C 1246.67,889.664 1250.67,886.164 1254.5,882.5 Z"/></g>
<g><path style="opacity:1" fill="#fffdfd" d="M 737.5,891.5 C 755.5,891.5 773.5,891.5 791.5,891.5C 793.276,898.723 796.443,905.39 801,911.5C 801.333,913.167 801.667,914.833 802,916.5C 805.745,921.323 808.412,926.657 810,932.5C 814.021,934.888 814.187,937.221 810.5,939.5C 790.33,937.935 769.997,936.435 749.5,935C 745.795,923.352 742.129,911.519 738.5,899.5C 737.52,896.914 737.187,894.247 737.5,891.5 Z"/></g>
<g><path style="opacity:0.993" fill="#f3eff0" d="M 1251.5,891.5 C 1250.94,896.093 1249.6,900.426 1247.5,904.5C 1140.2,1011.97 1032.7,1119.3 925,1226.5C 923.613,1228.05 922.447,1229.71 921.5,1231.5C 916.052,1233.99 910.385,1236.33 904.5,1238.5C 1019.83,1122.5 1135.5,1006.83 1251.5,891.5 Z"/></g>
<g><path style="opacity:0.991" fill="#fefefe" d="M 1247.5,904.5 C 1245.86,909.78 1243.86,914.78 1241.5,919.5C 1241.63,918.761 1241.46,918.094 1241,917.5C 1137.63,1020.7 1034.47,1124.03 931.5,1227.5C 928.397,1229.38 925.063,1230.72 921.5,1231.5C 922.447,1229.71 923.613,1228.05 925,1226.5C 1032.7,1119.3 1140.2,1011.97 1247.5,904.5 Z"/></g>
<g><path style="opacity:0.004" fill="#5b585b" d="M 150.5,909.5 C 151.833,910.167 151.833,910.167 150.5,909.5 Z"/></g>
<g><path style="opacity:0.99" fill="#f3eff0" d="M 1241.5,919.5 C 1238.41,924.599 1235.74,929.932 1233.5,935.5C 1140.02,1028.39 1046.52,1121.39 953,1214.5C 952.355,1215.65 951.522,1216.65 950.5,1217.5C 950.624,1218.11 950.957,1218.44 951.5,1218.5C 945.138,1222.01 938.472,1225.01 931.5,1227.5C 1034.47,1124.03 1137.63,1020.7 1241,917.5C 1241.46,918.094 1241.63,918.761 1241.5,919.5 Z"/></g>
<g><path style="opacity:0.004" fill="#5a585b" d="M 155.5,924.5 C 156.833,925.167 156.833,925.167 155.5,924.5 Z"/></g>
<g><path style="opacity:0.995" fill="#fefefe" d="M 1233.5,935.5 C 1232.74,939.137 1231.4,942.47 1229.5,945.5C 1140.27,1034.06 1050.6,1123.73 960.5,1214.5C 957.622,1216.11 954.622,1217.44 951.5,1218.5C 950.957,1218.44 950.624,1218.11 950.5,1217.5C 951.522,1216.65 952.355,1215.65 953,1214.5C 1046.52,1121.39 1140.02,1028.39 1233.5,935.5 Z"/></g>
<g><path style="opacity:0.004" fill="#4f4c4f" d="M 166.5,947.5 C 168.273,948.314 168.773,949.648 168,951.5C 167.209,950.255 166.709,948.922 166.5,947.5 Z"/></g>
<g><path style="opacity:0.004" fill="#545256" d="M 169.5,954.5 C 170.833,955.167 170.833,955.167 169.5,954.5 Z"/></g>
<g><path style="opacity:0.173" fill="#504d50" d="M 157.5,889.5 C 169.407,921.646 183.74,952.646 200.5,982.5C 196.878,984.787 193.545,987.453 190.5,990.5C 189.935,988.58 188.935,986.913 187.5,985.5C 186.682,981.192 184.682,978.359 181.5,977C 182.167,976.667 182.833,976.333 183.5,976C 181.833,974.667 180.167,973.333 178.5,972C 178.957,971.586 179.291,971.086 179.5,970.5C 174.997,962.497 171.163,954.164 168,945.5C 167.086,946.654 166.253,946.487 165.5,945C 166.308,944.692 166.975,944.192 167.5,943.5C 166.883,941.343 165.216,939.51 162.5,938C 157.963,924.806 153.296,911.306 148.5,897.5C 148.971,896.099 149.638,894.766 150.5,893.5C 151.086,893.709 151.586,894.043 152,894.5C 153.426,892.234 155.26,890.568 157.5,889.5 Z"/></g>
<g><path style="opacity:1" fill="#fefdfd" d="M 996.5,1194.5 C 992.458,1198.19 987.791,1200.86 982.5,1202.5C 983.504,1201.32 984.338,1199.98 985,1198.5C 1061.49,1123 1137.49,1047.33 1213,971.5C 1211.6,975.633 1209.6,979.633 1207,983.5C 1136.63,1053.7 1066.47,1124.03 996.5,1194.5 Z"/></g>
<g><path style="opacity:0.004" fill="#535054" d="M 182.5,979.5 C 183.833,980.167 183.833,980.167 182.5,979.5 Z"/></g>
<g><path style="opacity:0.004" fill="#474547" d="M 187.5,985.5 C 186.833,986.167 186.833,986.167 187.5,985.5 Z"/></g>
<g><path style="opacity:0.997" fill="#f0eced" d="M 1229.5,945.5 C 1227.82,951.888 1224.82,957.554 1220.5,962.5C 1217.59,969.319 1214.42,975.985 1211,982.5C 1204.35,993.134 1197.68,1003.8 1191,1014.5C 1187.91,1017.72 1185.08,1021.05 1182.5,1024.5C 1182.5,1024.17 1182.5,1023.83 1182.5,1023.5C 1185,1019.55 1187.17,1015.55 1189,1011.5C 1133.29,1066.03 1077.79,1121.53 1022.5,1178C 1022.73,1178.4 1023.06,1178.57 1023.5,1178.5C 1016.09,1183.05 1008.76,1187.88 1001.5,1193C 999.975,1194.01 998.308,1194.51 996.5,1194.5C 1066.47,1124.03 1136.63,1053.7 1207,983.5C 1209.6,979.633 1211.6,975.633 1213,971.5C 1137.49,1047.33 1061.49,1123 985,1198.5C 984.338,1199.98 983.504,1201.32 982.5,1202.5C 975.483,1207.01 968.15,1211.01 960.5,1214.5C 1050.6,1123.73 1140.27,1034.06 1229.5,945.5 Z"/></g>
<g><path style="opacity:0.004" fill="#3d3d3d" d="M 199.5,1005.5 C 198.833,1006.17 198.833,1006.17 199.5,1005.5 Z"/></g>
<g><path style="opacity:0.004" fill="#424043" d="M 205.5,1015.5 C 204.833,1016.17 204.833,1016.17 205.5,1015.5 Z"/></g>
<g><path style="opacity:0.004" fill="#4a464b" d="M 207.5,1019.5 C 206.833,1020.17 206.833,1020.17 207.5,1019.5 Z"/></g>
<g><path style="opacity:0.004" fill="#2b282a" d="M 219.5,1035.5 C 218.833,1036.17 218.833,1036.17 219.5,1035.5 Z"/></g>
<g><path style="opacity:0.004" fill="#434146" d="M 220.5,1039.5 C 219.833,1038.17 219.833,1038.17 220.5,1039.5 Z"/></g>
<g><path style="opacity:0.004" fill="#363436" d="M 220.5,1039.5 C 220.833,1039.5 221.167,1039.5 221.5,1039.5C 221.315,1040.17 220.981,1040.17 220.5,1039.5 Z"/></g>
<g><path style="opacity:1" fill="#f7f5f6" d="M 1182.5,1023.5 C 1177.41,1029.82 1171.74,1035.66 1165.5,1041C 1167.39,1041.16 1168.89,1040.33 1170,1038.5C 1170.67,1039.17 1170.67,1039.83 1170,1040.5C 1158.98,1055.53 1146.48,1069.36 1132.5,1082C 1133.42,1082.28 1134.08,1082.78 1134.5,1083.5C 1126.5,1091.83 1118.5,1100.17 1110.5,1108.5C 1083.81,1134.87 1054.81,1158.2 1023.5,1178.5C 1023.06,1178.57 1022.73,1178.4 1022.5,1178C 1077.79,1121.53 1133.29,1066.03 1189,1011.5C 1187.17,1015.55 1185,1019.55 1182.5,1023.5 Z"/></g>
<g><path style="opacity:0.004" fill="#454246" d="M 233.5,1055.5 C 232.833,1056.17 232.833,1056.17 233.5,1055.5 Z"/></g>
<g><path style="opacity:1" fill="#e4cfd2" d="M 1110.5,1015.5 C 1111.53,1015.9 1111.69,1016.56 1111,1017.5C 1083.5,1045 1056,1072.5 1028.5,1100C 1027.83,1100.67 1027.17,1100.67 1026.5,1100C 1054.7,1071.97 1082.7,1043.8 1110.5,1015.5 Z"/></g>
<g><path style="opacity:0.004" fill="#100c08" d="M 239.5,1063.5 C 238.833,1064.17 238.833,1064.17 239.5,1063.5 Z"/></g>
<g><path style="opacity:0.798" fill="#bdb9b9" d="M 1182.5,1023.5 C 1182.5,1023.83 1182.5,1024.17 1182.5,1024.5C 1179.1,1032.09 1174.27,1038.75 1168,1044.5C 1158.46,1058.54 1147.63,1071.54 1135.5,1083.5C 1135.17,1083.5 1134.83,1083.5 1134.5,1083.5C 1134.08,1082.78 1133.42,1082.28 1132.5,1082C 1146.48,1069.36 1158.98,1055.53 1170,1040.5C 1170.67,1039.83 1170.67,1039.17 1170,1038.5C 1168.89,1040.33 1167.39,1041.16 1165.5,1041C 1171.74,1035.66 1177.41,1029.82 1182.5,1023.5 Z"/></g>
<g><path style="opacity:0.808" fill="#999498" d="M 1134.5,1083.5 C 1134.83,1083.5 1135.17,1083.5 1135.5,1083.5C 1128.2,1092.14 1120.53,1100.47 1112.5,1108.5C 1111.83,1108.5 1111.17,1108.5 1110.5,1108.5C 1118.5,1100.17 1126.5,1091.83 1134.5,1083.5 Z"/></g>
<g><path style="opacity:0.231" fill="#423e42" d="M 200.5,982.5 C 249.184,1066.85 314.851,1134.85 397.5,1186.5C 394.806,1189.86 391.806,1192.86 388.5,1195.5C 385.16,1194.83 382.493,1193.17 380.5,1190.5C 369.914,1183.92 359.581,1176.92 349.5,1169.5C 347.469,1167.48 345.135,1165.81 342.5,1164.5C 337.873,1161.21 333.54,1157.54 329.5,1153.5C 323.973,1148.49 317.973,1143.99 311.5,1140C 311.833,1139.67 312.167,1139.33 312.5,1139C 310.248,1136.9 307.915,1135.06 305.5,1133.5C 293.926,1123.43 282.759,1112.76 272,1101.5C 261.302,1088.64 250.469,1075.97 239.5,1063.5C 237.365,1060.34 235.365,1057.67 233.5,1055.5C 229.5,1050.17 225.5,1044.83 221.5,1039.5C 221.34,1037.85 220.674,1036.51 219.5,1035.5C 217.736,1032.47 215.402,1029.97 212.5,1028C 212.833,1027.67 213.167,1027.33 213.5,1027C 211.361,1024.52 209.361,1022.02 207.5,1019.5C 207.34,1017.85 206.674,1016.51 205.5,1015.5C 204.421,1011.58 202.421,1008.24 199.5,1005.5C 196.07,1000.74 193.07,995.742 190.5,990.5C 193.545,987.453 196.878,984.787 200.5,982.5 Z"/></g>
<g><path style="opacity:1" fill="#f7f4f4" d="M 529.5,139.5 C 470.81,200.022 411.644,259.355 352,317.5C 349.097,319.546 347.264,322.213 346.5,325.5C 345.448,325.351 344.448,325.517 343.5,326C 343.833,326.333 344.167,326.667 344.5,327C 343.027,327.71 342.36,328.876 342.5,330.5C 238.009,434.51 186.342,560.844 187.5,709.5C 187.468,719.365 188.135,729.031 189.5,738.5C 195.499,810.982 215.666,879.316 250,943.5C 319.469,1064.64 420.636,1146.47 553.5,1189C 683.999,1225.02 809.999,1213.52 931.5,1154.5C 930.91,1155.77 930.41,1157.1 930,1158.5C 896.526,1192.31 862.693,1225.81 828.5,1259C 829.094,1259.46 829.761,1259.63 830.5,1259.5C 821.905,1262.5 812.905,1264.67 803.5,1266C 785.69,1268.3 768.024,1270.46 750.5,1272.5C 622.85,1281.78 505.184,1253.11 397.5,1186.5C 314.851,1134.85 249.184,1066.85 200.5,982.5C 183.74,952.646 169.407,921.646 157.5,889.5C 145.078,854.069 136.078,817.736 130.5,780.5C 128.781,769.538 127.448,758.538 126.5,747.5C 126.207,743.563 126.54,739.73 127.5,736C 125.194,734.207 124.861,732.04 126.5,729.5C 126.154,728.304 125.654,728.304 125,729.5C 124.829,721.323 124.329,713.323 123.5,705.5C 123.5,689.167 123.5,672.833 123.5,656.5C 127.787,628.276 132.287,599.609 137,570.5C 138.737,566.351 139.737,562.017 140,557.5C 140.273,555.671 141.107,554.171 142.5,553C 141.941,552.275 141.608,551.442 141.5,550.5C 145.473,537.077 149.473,523.411 153.5,509.5C 155.232,504.346 157.565,499.346 160.5,494.5C 276.554,379.113 392.221,263.446 507.5,147.5C 514.564,143.614 521.897,140.947 529.5,139.5 Z"/></g>
<g><path style="opacity:1" fill="#fefdfd" d="M 987.5,1121.5 C 987.938,1121.43 988.272,1121.6 988.5,1122C 944.632,1165.7 900.965,1209.53 857.5,1253.5C 855.565,1254.15 853.565,1254.48 851.5,1254.5C 850.475,1254.1 850.308,1253.44 851,1252.5C 889.693,1214.81 928.026,1176.81 966,1138.5C 966.47,1137.42 966.303,1136.42 965.5,1135.5C 972.561,1130.45 979.894,1125.78 987.5,1121.5 Z"/></g>
<g><path style="opacity:0.004" fill="#110e0a" d="M 305.5,1133.5 C 304.833,1134.17 304.833,1134.17 305.5,1133.5 Z"/></g>
<g><path style="opacity:1" fill="#f4eeef" d="M 965.5,1135.5 C 966.303,1136.42 966.47,1137.42 966,1138.5C 928.026,1176.81 889.693,1214.81 851,1252.5C 850.308,1253.44 850.475,1254.1 851.5,1254.5C 846.629,1255.97 841.629,1257.3 836.5,1258.5C 872.965,1221.53 909.632,1184.7 946.5,1148C 945.906,1147.54 945.239,1147.37 944.5,1147.5C 951.329,1143.25 958.329,1139.25 965.5,1135.5 Z"/></g>
<g><path style="opacity:1" fill="#fefdfd" d="M 944.5,1147.5 C 945.239,1147.37 945.906,1147.54 946.5,1148C 909.632,1184.7 872.965,1221.53 836.5,1258.5C 834.565,1259.15 832.565,1259.48 830.5,1259.5C 829.761,1259.63 829.094,1259.46 828.5,1259C 862.693,1225.81 896.526,1192.31 930,1158.5C 930.41,1157.1 930.91,1155.77 931.5,1154.5C 935.639,1151.93 939.973,1149.6 944.5,1147.5 Z"/></g>
<g><path style="opacity:0.004" fill="#4b484c" d="M 329.5,1153.5 C 328.833,1154.17 328.833,1154.17 329.5,1153.5 Z"/></g>
<g><path style="opacity:0.004" fill="#47454c" d="M 342.5,1164.5 C 341.833,1165.17 341.833,1165.17 342.5,1164.5 Z"/></g>
<g><path style="opacity:0.004" fill="#2b2729" d="M 349.5,1169.5 C 348.833,1170.17 348.833,1170.17 349.5,1169.5 Z"/></g>
<g><path style="opacity:0.004" fill="#4f4e57" d="M 380.5,1190.5 C 379.833,1191.17 379.833,1191.17 380.5,1190.5 Z"/></g>
<g><path style="opacity:0.656" fill="#555255" d="M 1110.5,1108.5 C 1111.17,1108.5 1111.83,1108.5 1112.5,1108.5C 1089.76,1131.43 1065.42,1152.26 1039.5,1171C 1037.83,1174 1035.5,1176.33 1032.5,1178C 1014.14,1190.18 995.47,1201.85 976.5,1213C 965.414,1217.04 955.08,1222.38 945.5,1229C 929.142,1234.89 913.142,1241.56 897.5,1249C 886.533,1251.79 875.7,1254.96 865,1258.5C 863.566,1258.93 862.399,1259.76 861.5,1261C 834.307,1267.77 806.974,1273.77 779.5,1279C 768.23,1280.45 757.23,1281.62 746.5,1282.5C 747.807,1281.2 747.807,1279.87 746.5,1278.5C 747.982,1276.52 749.649,1274.68 751.5,1273C 751.272,1272.6 750.938,1272.43 750.5,1272.5C 768.024,1270.46 785.69,1268.3 803.5,1266C 812.905,1264.67 821.905,1262.5 830.5,1259.5C 832.565,1259.48 834.565,1259.15 836.5,1258.5C 841.629,1257.3 846.629,1255.97 851.5,1254.5C 853.565,1254.48 855.565,1254.15 857.5,1253.5C 871.444,1250.4 884.778,1246.07 897.5,1240.5C 899.833,1239.83 902.167,1239.17 904.5,1238.5C 910.385,1236.33 916.052,1233.99 921.5,1231.5C 925.063,1230.72 928.397,1229.38 931.5,1227.5C 938.472,1225.01 945.138,1222.01 951.5,1218.5C 954.622,1217.44 957.622,1216.11 960.5,1214.5C 968.15,1211.01 975.483,1207.01 982.5,1202.5C 987.791,1200.86 992.458,1198.19 996.5,1194.5C 998.308,1194.51 999.975,1194.01 1001.5,1193C 1008.76,1187.88 1016.09,1183.05 1023.5,1178.5C 1054.81,1158.2 1083.81,1134.87 1110.5,1108.5 Z"/></g>
<g><path style="opacity:0.517" fill="#4c484b" d="M 397.5,1186.5 C 505.184,1253.11 622.85,1281.78 750.5,1272.5C 750.938,1272.43 751.272,1272.6 751.5,1273C 749.649,1274.68 747.982,1276.52 746.5,1278.5C 747.807,1279.87 747.807,1281.2 746.5,1282.5C 711.361,1281.44 676.694,1281.44 642.5,1282.5C 605.463,1277.32 568.463,1270.15 531.5,1261C 517.099,1255.42 502.433,1250.42 487.5,1246C 475.195,1239.9 462.528,1234.56 449.5,1230C 444.902,1227.73 440.569,1225.06 436.5,1222C 428.45,1218.53 420.45,1214.87 412.5,1211C 410.833,1210 409.5,1208.67 408.5,1207C 401.427,1203.74 394.76,1199.9 388.5,1195.5C 391.806,1192.86 394.806,1189.86 397.5,1186.5 Z"/></g>
</svg>
